<?xml version="1.0" encoding="utf-8"?>
<!-- Generator: Adobe Illustrator 22.1.0, SVG Export Plug-In . SVG Version: 6.00 Build 0)  -->
<svg version="1.1" id="Capa_1" xmlns="http://www.w3.org/2000/svg" xmlns:xlink="http://www.w3.org/1999/xlink" x="0px" y="0px"
	 viewBox="0 0 841.9 595.3" style="enable-background:new 0 0 841.9 595.3;" xml:space="preserve">
<style type="text/css">
	.st0{fill:#206F9C;}
	.st1{fill:#2481B7;}
	.st2{fill:#FFFFFF;filter:url(#Adobe_OpacityMaskFilter);}
	.st3{opacity:0.48;mask:url(#aboveground_1_);fill:#1A6E9E;enable-background:new    ;}
	.st4{fill:url(#SVGID_1_);}
	.st5{fill:url(#SVGID_2_);}
	.st6{fill:url(#SVGID_3_);}
	.st7{fill:url(#SVGID_4_);}
	.st8{fill:url(#SVGID_5_);}
	.st9{fill:url(#SVGID_6_);}
	.st10{fill:url(#SVGID_7_);}
	.st11{fill:url(#SVGID_8_);}
	.st12{fill:url(#SVGID_9_);}
	.st13{fill:#1C140F;}
	.st14{fill:url(#SVGID_10_);}
	.st15{fill:url(#SVGID_11_);}
	.st16{fill:url(#SVGID_12_);}
	.st17{fill:#F0B877;}
	.st18{fill:#FECE99;}
	.st19{fill:url(#SVGID_13_);}
	.st20{fill:url(#SVGID_14_);}
	.st21{fill:url(#SVGID_15_);}
	.st22{fill:url(#SVGID_16_);}
	.st23{opacity:0.18;fill:#161616;enable-background:new    ;}
	.st24{fill:#C2C2C2;}
	.st25{fill:#E2E2E2;}
	.st26{fill:#E3E3E3;}
	.st27{fill:#B0B1B1;}
	.st28{fill:#975D42;}
	.st29{fill:#EDEDED;}
	.st30{fill:#777777;}
	.st31{fill:#CBCBCB;}
	.st32{fill:#986945;}
	.st33{fill:#B68563;}
	.st34{fill:#010101;}
	.st35{fill:#FFFFFF;}
	.st36{fill:#8A5E3E;}
	.st37{fill:#B58463;}
	.st38{font-family:'Helvetica';}
	.st39{font-size:1.5698px;}
	.st40{fill:#CB3935;}
	.st41{fill:#7A5537;}
	.st42{fill:#BC3431;}
	.st43{opacity:0.15;fill:#010101;enable-background:new    ;}
	.st44{opacity:0.12;fill:#010101;enable-background:new    ;}
	.st45{filter:url(#Adobe_OpacityMaskFilter_1_);}
	.st46{mask:url(#mask-20_3_);fill:#966C47;}
	.st47{filter:url(#Adobe_OpacityMaskFilter_2_);}
	.st48{mask:url(#mask-22_3_);fill:#A62928;}
	.st49{filter:url(#Adobe_OpacityMaskFilter_3_);}
	.st50{opacity:0.1;mask:url(#mask-24_3_);}
	.st51{filter:url(#Adobe_OpacityMaskFilter_4_);}
	.st52{mask:url(#mask-26_3_);fill:#010101;}
	.st53{filter:url(#Adobe_OpacityMaskFilter_5_);}
	.st54{mask:url(#mask-28_3_);fill:#CC3936;}
	.st55{filter:url(#Adobe_OpacityMaskFilter_6_);}
	.st56{opacity:0.1;mask:url(#mask-30_3_);}
	.st57{filter:url(#Adobe_OpacityMaskFilter_7_);}
	.st58{mask:url(#mask-32_3_);fill:#010101;}
	.st59{fill:#AB3130;}
	.st60{fill:#7C2423;}
	.st61{fill:#DA9B5C;}
	.st62{fill:#C79669;}
	.st63{fill:#FEC989;}
	.st64{fill:#484A49;}
	.st65{fill:#E4D030;}
	.st66{fill:#9F9EA1;}
	.st67{fill:#195470;}
	.st68{fill:#CC3938;}
	.st69{fill:#9B2121;}
	.st70{fill:#29282A;}
	.st71{fill:url(#SVGID_17_);}
	.st72{fill:#CC9341;}
	.st73{fill:url(#SVGID_18_);}
</style>
<rect id="ground" y="0" class="st0" width="841.9" height="595.3"/>
<rect id="skyWide" y="0" class="st1" width="841.9" height="416.7"/>
<defs>
	<filter id="Adobe_OpacityMaskFilter" filterUnits="userSpaceOnUse" x="0" y="191.7" width="860.8" height="293.5">
		<feColorMatrix  type="matrix" values="1 0 0 0 0  0 1 0 0 0  0 0 1 0 0  0 0 0 1 0"/>
	</filter>
</defs>
<mask maskUnits="userSpaceOnUse" x="0" y="191.7" width="860.8" height="293.5" id="aboveground_1_">
	<rect y="191.7" class="st2" width="841.9" height="229.1"/>
</mask>
<path id="cityscape" class="st3" d="M857.9,332l-1.2,1.6h-2.4L853,332H857.9L857.9,332z M858.1,333.6H857l1.1-1.4V333.6z
	 M858.1,345.4l-2.5-3.1l2.2-2.7h0.3L858.1,345.4L858.1,345.4z M858.1,348.7H856l2.1-2.6L858.1,348.7L858.1,348.7z M858.1,352.3
	l-1.4-1.7h1.4V352.3z M858.1,357.2h-1.7l-0.8-1l2.5-3.1L858.1,357.2L858.1,357.2z M854.8,357.2l0.6-0.8l0.6,0.8H854.8L854.8,357.2z
	 M852.7,357.2V353l2.5,3.2l-0.8,1.1L852.7,357.2L852.7,357.2z M852.7,333.6v-1.4l1.1,1.4H852.7z M853.5,339.6h3.9l-2,2.5
	L853.5,339.6L853.5,339.6z M852.7,345.4v-5.8h0.4l2.2,2.7L852.7,345.4L852.7,345.4z M852.9,345.6l2.5-3.1l2.5,3.1H852.9L852.9,345.6
	z M855.2,348.7l-2.3-2.8h4.9l-2.3,2.8H855.2L855.2,348.7z M852.6,348.7v-2.7l2.2,2.7H852.6z M854,350.6l-1.5,1.8v-1.7L854,350.6
	L854,350.6z M857.8,352.9l-2.5,3l-2.4-3H857.8L857.8,352.9z M852.8,352.5l1.5-1.9h1.9l1.5,1.9L852.8,352.5L852.8,352.5z M852.4,332
	v1.6h-14.8v-1.9h-2.5v-0.5h19.7v0.5h-2.5L852.4,332L852.4,332z M852.4,345.6v3.2h-7c-1.5,0-2.8,0.8-3.5,2h-3.5v-0.2
	c0-0.6-0.3-1.1-0.8-1.4v-7.6h0.1c0.3-0.1,0.5-0.4,0.5-0.7c0-0.2-0.2-0.4-0.5-0.5h-0.1v-0.8h14.8V345.6z M852.4,352.5v4.7h-1.6v-0.3
	c0-3.4-2.7-6.1-6.1-6.1c0.3-0.1,0.5-0.2,0.8-0.2h7L852.4,352.5L852.4,352.5z M847.9,357.2h-4.7v-3.6h1.4c1.8,0,3.3,1.5,3.3,3.4
	L847.9,357.2L847.9,357.2z M841.3,357.2h-3.7v-2c0.5-0.3,0.8-0.8,0.8-1.4v-0.3h2.9V357.2L841.3,357.2z M837.4,333.6h-1.1l1.1-1.4
	L837.4,333.6L837.4,333.6z M837.4,340.5c-0.1,0.1-0.2,0.1-0.3,0.3l-0.9,0h-0.2l0.9-1.1h0.3v0.9L837.4,340.5z M837.4,345.4l-2-2.4
	v-0.8c0-0.2-0.1-0.4-0.1-0.6l0.3-0.3h0.6c0.3,0,0.6,0,0.8,0c0.1,0.1,0.1,0.2,0.3,0.3v3.9L837.4,345.4z M837.4,349.1
	c-0.2-0.1-0.4-0.1-0.6-0.1h-0.3v-1.8l0.8-1.1L837.4,349.1L837.4,349.1z M837.1,345.9l-0.6,0.8v-0.8H837.1L837.1,345.9z M836.5,345.5
	c-0.1-0.8-0.4-1.5-0.8-1.5h-0.3v-0.8l1.7,2.2L836.5,345.5L836.5,345.5z M837.3,357.1H836c-0.2-0.5-0.5-1-0.8-1.5l0.2-0.3h1.3
	c0.2,0,0.4-0.1,0.6-0.1v1.8L837.3,357.1z M835,355.3L835,355.3h-0.1H835z M834.3,341.5l-0.4-0.4h0.4V341.5L834.3,341.5z M834.2,342
	v0.2l-2.4,3v-3.9c0.1,0,0.1,0.1,0.2,0.1c0.2,0,0.4-0.2,0.5-0.4h0.9l0.6,0.8v0.1L834.2,342z M834.2,343.9h-0.4
	c-0.4,0-0.7,0.6-0.8,1.5h-1.1l2.2-2.7v1.3H834.2z M833.1,347l-1.1-1.3h1L833.1,347L833.1,347z M833.1,348.8h-0.3
	c-0.4,0-0.8,0.1-1.1,0.4v-3.4l1.3,1.6L833.1,348.8L833.1,348.8z M831.8,357v-0.5c0.2,0.1,0.3,0.3,0.5,0.5H831.8z M833.3,333.4
	l-1.3-1.6h4.9l-1.3,1.5L833.3,333.4L833.3,333.4z M832.5,339.4h4l-0.9,1.1h-2.1L832.5,339.4z M831.8,333.4v-1.5l1.1,1.4L831.8,333.4
	L831.8,333.4z M832.1,339.4l0.9,1.1h-0.6c-0.1-0.3-0.4-0.4-0.7-0.3c0,0,0,0,0,0v-0.9L832.1,339.4L832.1,339.4z M831.6,331.8v1.6
	h-8.4c-2.1,0-4,0.4-5.8,1.3v-3.2H815V331H834v0.5h-2.5L831.6,331.8L831.6,331.8z M831.6,340.3c-0.1,0.1-0.2,0.2-0.2,0.4
	c0,0.1,0.1,0.3,0.2,0.4v8.2c-0.2,0.3-0.4,0.6-0.4,1v0.3h-0.7c-1.7,0-3.3,0.7-4.5,2h-8.7v-10.2c1.4-1.8,3.5-2.8,5.7-2.8h8.4v1
	L831.6,340.3z M831.6,356.9h-4.4v-0.3c0-0.4,0.1-0.8,0.1-1.1h2c0.8,0,1.5,0.3,2.2,0.7L831.6,356.9L831.6,356.9z M824.4,356.6v0.3h-7
	v-1.3h7.1C824.4,355.9,824.4,356.3,824.4,356.6L824.4,356.6z M817.2,334.7c-0.7,0.3-1.3,0.7-1.9,1.1l-0.7-0.8l2.5-3.1L817.2,334.7
	L817.2,334.7z M817.2,345.1l-0.9-1c0.2-0.6,0.5-1.1,0.8-1.6L817.2,345.1L817.2,345.1z M816,345.3c0.1-0.3,0.1-0.6,0.2-0.9l0.8,0.9
	H816L816,345.3z M816.9,345.7l-1,1.3v-0.4c0-0.3,0-0.6,0.1-0.8L816.9,345.7L816.9,345.7z M817.2,352.1l-1.3-1.6v-3l1.3-1.6v6.3
	V352.1z M815.9,352.2V351l1.1,1.4H816L815.9,352.2z M815.9,356.9h1.3v-1.3h-1.3V356.9L815.9,356.9z M812.8,338.3h-0.7l2.5-3l0.6,0.8
	C814.3,336.7,813.5,337.5,812.8,338.3L812.8,338.3z M812.3,339l-0.2-0.3h0.4L812.3,339L812.3,339z M811.8,339.7v-0.9l0.3,0.4
	L811.8,339.7L811.8,339.7z M814.4,335l-2.5,3.2v-6l2.5,3.2V335z M812.1,331.7h4.9l-2.5,3.1L812.1,331.7L812.1,331.7z M811.7,331.7
	v8.3c-1.1,2-1.7,4.2-1.7,6.5V357h-1.6v-26h5.8v0.5h-2.4v0.4L811.7,331.7z M808.2,317.3l-2.5-3l2.5-3.1L808.2,317.3L808.2,317.3z
	 M808.2,324.3l-2.5-3l2.5-3.1L808.2,324.3L808.2,324.3z M808.2,329.5h-1.4l-1.1-1.4l2.5-3.1L808.2,329.5L808.2,329.5z M808.2,331.2
	l-0.3-0.3h0.3V331.2z M808.2,334.2h-1.8l1.8-2.2L808.2,334.2L808.2,334.2z M804.9,334.2l-1.9-2.3h4.9l-1.9,2.4L804.9,334.2
	L804.9,334.2z M802.7,334.2v-2l1.8,2.3h-1.8V334.2z M802.5,311v18.7h-13.9v-19.5H805v0.5h-2.4v0.4L802.5,311z M802.5,331.5v2.8h-5.1
	v-2.7H795V331h7.5v0.6L802.5,331.5z M797.3,334.3h-1.8l1.8-2.2L797.3,334.3L797.3,334.3z M794,334.3l-2-2.4h4.9l-1.9,2.4H794
	L794,334.3z M791.8,334.3v-2.1l1.8,2.3h-1.8V334.3z M791.6,331.9v2.4h-3.1v-3.4h5.6v0.5h-2.4v0.4L791.6,331.9z M802.6,317.4v-6.3
	l2.5,3.2L802.6,317.4z M802.9,317.6l2.5-3l2.5,3.1H803L802.9,317.6z M802.9,317.9h4.9l-2.5,3L802.9,317.9z M802.7,324.4v-6.1
	l2.5,3.2l-2.5,3.2V324.4z M802.9,324.6l2.5-3.1l2.5,3.1H802.9L802.9,324.6z M803,325h4.9l-2.5,3L803,325L803,325z M804.4,329.6
	l0.9-1.1l0.9,1.2L804.4,329.6L804.4,329.6z M803.3,331h4.1l0.4,0.6h-5L803.3,331L803.3,331z M802.7,329.6V325l2.5,3.2l-1.1,1.4
	H802.7L802.7,329.6z M802.9,331l-0.3,0.4V331H802.9L802.9,331z M807.8,311l-2.5,3l-2.5-3H807.8z M786.7,274.4h1.3V271h-1.3V274.4z
	 M786.7,278.1h1.3v-3.6h-1.3V278.1L786.7,278.1z M786.7,281.8h1.3v-3.4h-1.3V281.8L786.7,281.8z M786.7,285.5h1.3V282h-1.3V285.5
	L786.7,285.5z M786.7,289.2h1.3v-3.4h-1.3V289.2L786.7,289.2z M786.7,292.9h1.3v-3.5h-1.3V292.9z M786.7,296.6h1.3v-3.7h-1.3v3.5
	V296.6z M786.7,300.3h1.3v-3.6h-1.3V300.3L786.7,300.3z M786.7,304h1.3v-3.4h-1.3V304L786.7,304z M786.7,307.6h1.3v-3.5h-1.3V307.6z
	 M786.7,308.8h1.3v-0.9h-1.3V308.8L786.7,308.8z M788.1,311.4h-0.3v-0.6h-0.9v-0.5h1.3L788.1,311.4L788.1,311.4z M787.8,315h0.3
	v-3.7h-0.4v3.5L787.8,315z M788.1,318.7h-0.4v-3.6h0.4v3.5V318.7z M787.7,322.4h0.4v-3.6h-0.4V322.4L787.7,322.4z M788.1,326.1h-0.4
	v-3.2h0.3v3.5L788.1,326.1z M787.7,329.7h0.3v-3.4h-0.4L787.7,329.7L787.7,329.7z M788,333.4h-0.4v-2.5h0.3L788,333.4L788,333.4z
	 M787.6,334.3h0.3v-0.6h-0.4L787.6,334.3L787.6,334.3z M787.4,311.4L787.4,311.4L787.4,311.4L787.4,311.4z M787.4,315.1h-0.8v-2.8
	l0.5-0.6h0.3L787.4,315.1L787.4,315.1z M787.4,317.6l-0.8-0.9v-1.3h0.8L787.4,317.6L787.4,317.6z M787.4,318.8H787l0.4-0.5
	L787.4,318.8L787.4,318.8z M787.4,322.5h-0.8v-3.2l0.2-0.3h0.6L787.4,322.5L787.4,322.5z M787.4,324.5l-0.8-0.9v-0.6h0.8v1.8
	L787.4,324.5z M787.4,326.2h-0.8l0.8-0.9V326.2z M786.6,329.7h0.8v-3.4h-0.8V329.7z M787.4,331.4l-0.3-0.3h0.3V331.4z M787.4,333.5
	h-0.8v-0.4l0.8-0.9V333.5L787.4,333.5z M786.6,334.4h0.8v-0.6h-0.8V334.4z M786.6,332.1h0.5l-0.5,0.6V332.1z M786.6,331.1h0.1
	l0.4,0.6h-0.6L786.6,331.1L786.6,331.1z M786.6,325.1h0.5l-0.6,0.7L786.6,325.1L786.6,325.1z M786.6,324l0.6,0.8h-0.6v-0.6V324z
	 M786.6,318.2h0.6l-0.6,0.7V318.2L786.6,318.2z M786.6,317.1l0.6,0.7h-0.6V317.1L786.6,317.1z M786.6,311.7h0.2l-0.2,0.2V311.7
	L786.6,311.7z M786.6,311.2h0.6l-0.3,0.3h-0.4L786.6,311.2L786.6,311.2z M784.1,274.6h2.1v-3.8h-2.1v3.5V274.6z M784.1,278.3h2.1
	v-3.7h-2.1v3.4V278.3z M784.1,282h2.1v-3.6h-2.1v3.5V282z M784.1,285.7h2.1v-3.5h-2.1V285.7L784.1,285.7z M784.1,289.3h2.1v-3.5
	h-2.1V289.3z M784.1,293h2.1v-3.8h-2.1v3.5V293z M784.1,296.7h2.1v-3.8h-2.1v3.5V296.7z M784.1,300.4h2.1v-3.7h-2.1v3.5V300.4z
	 M784.1,304.1h2.1v-3.5h-2.1V304.1L784.1,304.1z M784.1,307.8h2.1v-3.5h-2.1V307.8z M784.1,308.9h2.1V308h-2.1V308.9z M785.2,310.8
	h1v-0.5h-1V310.8z M784.1,311.5h2.1v-0.3h-2.1V311.5z M786.2,312.4l-1.5,1.8l-0.6-0.8v-2.2h2.1v0.8V312.4z M786.2,315.1h-0.8
	l-0.6-0.6l1.3-1.6L786.2,315.1L786.2,315.1z M786.2,316.1l-0.6-0.7h0.6V316.1L786.2,316.1z M786.2,317.8h-2.1v-2.3l0.1-0.1h1
	l0.9,1.1L786.2,317.8L786.2,317.8z M784.1,318.9h2.1v-0.7h-2.1V318.9z M786.2,319.4l-1.5,1.8l-0.6-0.8v-1.3h2.1V319.4L786.2,319.4z
	 M786.2,322.5h-0.4l-0.9-1.1l1.3-1.6V322.5L786.2,322.5z M786.2,323l-0.3-0.3h0.2L786.2,323L786.2,323z M786.2,324.8h-2.1v-1.9h1.5
	l0.6,0.8v1.3V324.8z M784.1,326.2h2.1v-1.1H784L784.1,326.2L784.1,326.2z M786.2,329.8H786l-1.1-1.4l1.3-1.6L786.2,329.8
	L786.2,329.8z M784,331.8h2.1v-0.6H784V331.8L784,331.8z M786.1,333.4l-0.3,0.3H784v-1.5h2.2L786.1,333.4L786.1,333.4z M786.1,334.5
	h-0.6l0.5-0.6h0.1V334.5z M784.1,334.5l-0.1-0.1v-0.5h1.6l-0.5,0.6H784.1L784.1,334.5z M784,329.5l0.6-0.8l0.9,1.2H784V329.5
	L784,329.5z M784,327.9l0.4,0.6L784,329v-1.3V327.9z M784,326.5h2l-1.4,1.7l-0.6-0.8V326.5L784,326.5z M784,322.5l0.6-0.8l0.7,0.9
	L784,322.5C784,322.6,784,322.5,784,322.5z M784,320.9l0.4,0.6L784,322v-1.3V320.9z M784.6,314.7l0.3,0.4h-0.7L784.6,314.7
	L784.6,314.7z M784,313.9l0.4,0.6l-0.4,0.6v-1.3V313.9z M784,310.8h0.2v-0.5H784V310.8z M783.5,274.6h-1.2v-3.5h1.2V274.6z
	 M782.3,278.2h1.2v-3.7h-1.2v3.5V278.2z M782.3,281.9h1.2v-3.5h-1.2V281.9L782.3,281.9z M782.3,285.6h1.2v-3.2h-1.2v3.5V285.6z
	 M782.3,289.3h1.2v-3.5h-1.2V289.3z M782.3,292.9h1.2v-3.5h-1.2V292.9z M782.3,296.6h1.2v-3.7h-1.2v3.5V296.6z M782.3,300.3h1.2
	v-3.6h-1.2v3.5V300.3z M782.3,304h1.2v-3.5h-1.2V304L782.3,304z M782.3,307.7h1.2v-3.2h-1.2v3.5V307.7z M782.3,308.8h1.2v-0.9h-1.2
	V308.8L782.3,308.8z M782.3,310.7h1.2v-0.5h-1.2V310.7z M783.5,311.3h-1.1l-0.1-0.1v-0.2h1.2C783.5,311.1,783.5,311.3,783.5,311.3z
	 M783.5,312.8l-1-1.3h1V312.8z M783.5,315h-1.2v-3.4l1.2,1.6V315z M783.5,315.5l-1.3,1.5v-1.9h1.2v0.2L783.5,315.5z M783.5,317.6
	h-1.2v-0.2l1.2-1.5V317.6L783.5,317.6z M783.5,318.7h-0.8l-0.4-0.5V318h1.2L783.5,318.7L783.5,318.7z M783.5,319.8l-0.6-0.8h0.6
	V319.8z M783.5,322.4h-1.2v-3.5h0.2l1,1.3V322.4L783.5,322.4z M783.5,324.6h-1.2v-0.2l1.2-1.6V324.6L783.5,324.6z M783.5,326.1H783
	l-0.8-0.9V325h1.2L783.5,326.1L783.5,326.1z M783.5,326.7l-0.3-0.4h0.3V326.7z M783.5,329.4l-0.3,0.3h-1v-3.2h0.6l0.6,0.8v2.2
	L783.5,329.4z M783.5,331.7h-1.2v-0.2l0.3-0.3h0.9V331.7z M783.5,333.6h-0.1l-1.1-1.3v-0.1h1.2L783.5,333.6L783.5,333.6z
	 M783.5,334.5h-1.2v-0.6h0.9l0.4,0.4L783.5,334.5L783.5,334.5z M782.2,332.7l0.7,0.9h-0.7V332.7L782.2,332.7z M782.2,325.7l0.4,0.5
	h-0.4V325.7L782.2,325.7z M782.2,322.7h1.1l-1.1,1.3V322.7L782.2,322.7z M782.2,318.8L782.2,318.8L782.2,318.8z M779.8,274h1.3v-2.9
	h-1.3V274z M777.6,274h1.3v-2.9h-1.3V274z M775.3,274h1.3v-2.9h-1.3V274z M773,274h1.3v-2.9H773V274z M770.7,274h1.3v-2.9h-1.3V274z
	 M768.4,274h1.3v-2.9h-1.3V274z M766.1,274h1.3v-2.9h-1.3V274z M763.9,274h1.3v-2.9h-1.3V274z M762.8,326.3H760v-25.8h-2.2v-0.7h5
	V326.3z M759.8,307.2l-2-2.5v-1.3l2-2.4V307.2L759.8,307.2z M759.8,314.2l-2-2.5v-1.3l2-2.4V314.2z M759.8,321.1l-2-2.5v-1.4l2-2.4
	V321.1L759.8,321.1z M759.8,326.3h-1.5l-0.5-0.6v-1.4l2-2.4L759.8,326.3L759.8,326.3z M757.8,326.3v-0.2l0.1,0.2H757.8z
	 M757.5,241.6l-4-2.7v-1.1l4-2.7v6.2V241.6z M757.5,248.5l-4-2.7v-1.1l4-2.7v6.2V248.5z M757.5,255.5l-3.9-2.7v-1.1l4-2.7v6.2
	L757.5,255.5z M757.5,262.5l-3.9-2.7v-1.1l4-2.7v6.2L757.5,262.5z M757.5,269.5l-3.9-2.7v-1.1l4-2.7v6.3L757.5,269.5z M757.5,276.4
	l-3.9-2.7v-1.1l4-2.7L757.5,276.4L757.5,276.4z M757.5,283.4l-3.9-2.7v-0.8l4-2.7L757.5,283.4L757.5,283.4z M757.5,290.4l-3.9-2.7
	v-0.8l4-2.7L757.5,290.4L757.5,290.4z M757.5,297.4l-3.9-2.7v-0.8l4-2.7L757.5,297.4L757.5,297.4z M757.5,298.4h-0.4l0.4-0.3V298.4z
	 M757.5,303.4l-0.4,0.5l-2.5-3h2.8V303.4L757.5,303.4z M757.5,304.4L757.5,304.4l-0.2-0.2l0.2-0.3L757.5,304.4L757.5,304.4z
	 M757.5,307.5h-2.8l0.7-0.9l2.2-1.5V307.5z M757.5,310.4l-0.4,0.4l-2.4-3.1h2.8L757.5,310.4L757.5,310.4z M757.5,311.3L757.5,311.3
	l-0.2-0.3l0.2-0.3L757.5,311.3L757.5,311.3z M757.5,314.4h-2.8l0.8-0.9l2.2-1.5L757.5,314.4L757.5,314.4z M757.5,317.3l-0.4,0.4
	l-2.4-3h2.8L757.5,317.3L757.5,317.3z M757.5,318.2L757.5,318.2l-0.2-0.2l0.2-0.3L757.5,318.2L757.5,318.2z M757.5,321.4h-2.9
	l0.6-0.8l2.3-1.6L757.5,321.4L757.5,321.4z M757.5,324.3l-0.4,0.5l-2.4-3h2.8L757.5,324.3L757.5,324.3z M757.5,325.2l-0.2-0.3
	l0.2-0.3C757.5,324.7,757.5,325.2,757.5,325.2z M757.5,326.3h-0.4l0.4-0.3V326.3L757.5,326.3z M757,325.5l0.1-0.1l0.1,0.1H757
	L757,325.5z M756.3,326.3l0.4-0.4h0.4l-0.7,0.4H756.3L756.3,326.3z M754.4,326.3v-0.4h1.9l-0.4,0.4H754.4L754.4,326.3z M754.4,302.3
	V301l2.2,2.7L754.4,302.3L754.4,302.3z M756.6,304.6h-2.2v-1.9l2.4,1.6L756.6,304.6L756.6,304.6z M754.4,306.8V305h1.9l-0.9,1.2
	L754.4,306.8L754.4,306.8z M754.4,307.4v-0.1l0.1-0.1L754.4,307.4L754.4,307.4z M754.4,309.3V308l2.2,2.8L754.4,309.3z M756.6,311.6
	h-2.2v-1.9l2.4,1.6L756.6,311.6z M754.4,313.8v-1.9h1.9l-0.9,1.1L754.4,313.8L754.4,313.8z M754.4,314.3v-0.1l0.1-0.1L754.4,314.3
	L754.4,314.3z M754.4,316.2V315l2.2,2.8L754.4,316.2z M756.6,318.6h-2.2v-1.9l2.4,1.6L756.6,318.6L756.6,318.6z M754.4,320.8v-1.9
	h1.9l-1,1.3L754.4,320.8L754.4,320.8z M754.4,321.2L754.4,321.2L754.4,321.2L754.4,321.2z M756.8,325.3l-0.2,0.3h-2.2v-1.8
	L756.8,325.3L756.8,325.3z M754.5,323.2v-1.3l2.3,2.9L754.5,323.2z M757,318.5l0.1-0.1l0.1,0.1L757,318.5L757,318.5z M757.2,318.9
	l-1.1,0.7l0.6-0.7L757.2,318.9L757.2,318.9z M757,311.6L757,311.6l0.2,0L757,311.6L757,311.6z M757.2,312l-0.9,0.6l0.4-0.6
	L757.2,312L757.2,312z M757,304.6L757,304.6h0.2H757L757,304.6z M757.2,305l-0.9,0.6l0.5-0.6L757.2,305L757.2,305z M754.3,300.9v1.3
	l-0.6-0.4v-0.9l1.5-1h1.6v0.7h-2.5V300.9L754.3,300.9z M754.3,304.7h-0.6v-2.5l0.6,0.4V304.7z M754.3,307l-0.6,0.4V305h0.6v1.9V307z
	 M754.3,307.5v1.6l-0.6-0.4v-0.8L754.3,307.5L754.3,307.5L754.3,307.5z M754.3,311.6h-0.6v-2.5l0.6,0.4V311.6z M754.3,314l-0.6,0.4
	v-2.5h0.6v1.9V314z M754.3,314.5v1.6l-0.6-0.4v-0.8L754.3,314.5L754.3,314.5L754.3,314.5z M754.3,318.6h-0.6v-2.5l0.6,0.4V318.6z
	 M754.3,321l-0.6,0.4v-2.5h0.6v2V321z M754.3,321.5v1.7l-0.6-0.4v-0.8L754.3,321.5L754.3,321.5L754.3,321.5z M754.3,325.6h-0.6v-2.4
	l0.6,0.4V325.6z M753.7,326.4h0.6V326h-0.6V326.4L753.7,326.4z M753.7,299.9h0.9l-0.9,0.6V299.9L753.7,299.9z M753.7,298.1h3.5
	l-0.6,0.4h-2.9V298.1L753.7,298.1z M753.7,295.3l3.6,2.5h-3.6L753.7,295.3L753.7,295.3z M753.7,291.2h3.5l-3.5,2.4v-2.5V291.2z
	 M753.7,288.4l3.7,2.5h-3.7V288.4z M753.7,284.2h3.5l-3.5,2.3v-2.5V284.2z M753.7,281.4l3.6,2.5h-3.6V281.4z M753.7,277.2h3.5
	l-3.5,2.3v-2.5L753.7,277.2z M753.7,274.4l3.6,2.5h-3.6V274.4z M753.7,270.3h3.5l-3.5,2.4v-2.5V270.3z M753.7,267.5l3.6,2.4h-3.6
	L753.7,267.5L753.7,267.5z M753.7,263.3h3.5l-3.5,2.4v-2.5V263.3z M753.7,260.4l3.7,2.5h-3.7V260.4z M753.7,256.3h3.5l-3.5,2.3v-2.5
	V256.3z M753.7,253.5l3.6,2.5h-3.6V253.5z M753.7,249.3h3.5l-3.5,2.4L753.7,249.3L753.7,249.3z M753.7,246.5l3.6,2.4h-3.6V246.5
	L753.7,246.5z M753.7,242.4h3.5l-3.5,2.4V242.4L753.7,242.4z M753.7,239.6l3.6,2.4h-3.6L753.7,239.6L753.7,239.6z M753.7,235.4h3.5
	l-3.5,2.4V235.4L753.7,235.4z M758,321.9h1.7L758,324V321.9L758,321.9z M758,319.3l1.8,2.2H758V319.3z M758,314.9h1.7L758,317V314.9
	L758,314.9z M758,312.3l1.8,2.2H758V312.3z M758,307.9h1.7L758,310V307.9z M758,305.4l1.7,2.2H758L758,305.4L758,305.4z M758,300.9
	h1.7l-1.7,2.2V300.9z M751.8,237.9l-3.5-2.3h3.5V237.9L751.8,237.9z M751.8,239.3l-3.9,2.7v-6.6l3.9,2.7v0.9L751.8,239.3z
	 M751.8,242.1h-3.5l3.5-2.4L751.8,242.1L751.8,242.1z M751.8,244.8l-3.5-2.3h3.4L751.8,244.8L751.8,244.8z M751.8,246.2l-3.9,2.7
	v-6.6l3.9,2.7v0.9L751.8,246.2z M751.8,249.1h-3.5l3.5-2.4V249.1z M751.8,251.8l-3.4-2.3h3.4L751.8,251.8L751.8,251.8z M751.8,253.2
	l-3.9,2.7v-6.6l3.9,2.7v0.9L751.8,253.2z M751.8,256h-3.5l3.5-2.4V256z M751.8,258.7l-3.4-2.3h3.4V258.7z M751.8,260.1l-3.9,2.7
	v-6.3l3.9,2.7L751.8,260.1L751.8,260.1z M751.8,263h-3.5l3.6-2.4L751.8,263L751.8,263z M751.8,265.8l-3.5-2.3h3.5V265.8z
	 M751.8,267.2l-3.9,2.7v-6.7l3.9,2.7v0.9L751.8,267.2z M751.8,270h-3.5l3.5-2.3L751.8,270L751.8,270z M751.8,272.8l-3.5-2.3h3.4
	L751.8,272.8L751.8,272.8z M751.8,274.2l-3.9,2.7v-6.3l3.9,2.7L751.8,274.2L751.8,274.2z M751.8,277h-3.5l3.5-2.4V277z M751.8,279.7
	l-3.4-2.3h3.4L751.8,279.7L751.8,279.7z M751.8,281.1l-3.9,2.7v-6.3l3.9,2.7L751.8,281.1L751.8,281.1z M751.8,284h-3.5l3.5-2.4V284z
	 M751.8,286.7l-3.4-2.3h3.4V286.7L751.8,286.7z M751.8,288.1l-3.9,2.7v-6.3l3.9,2.7L751.8,288.1L751.8,288.1z M751.8,291h-3.5
	l3.6-2.4L751.8,291L751.8,291z M751.8,293.7l-3.5-2.3h3.5V293.7z M751.8,295.1l-3.9,2.7v-6.3l3.9,2.7L751.8,295.1L751.8,295.1z
	 M751.8,297.9h-3.5l3.5-2.3L751.8,297.9L751.8,297.9z M751.8,298.8h-2.8l-0.6-0.4h3.4L751.8,298.8L751.8,298.8z M751.8,300.7
	l-0.8-0.5h0.8L751.8,300.7L751.8,300.7z M751.8,302.1l-3.9,2.7v-4.9h2.5l1.5,1v0.9L751.8,302.1z M751.8,304.9h-3.5l3.5-2.4V304.9
	L751.8,304.9z M751.8,307.6l-3.4-2.3h3.4L751.8,307.6L751.8,307.6z M751.8,309l-2.5,1.7h-1.5V305l4,2.7v0.9L751.8,309z M751.8,310.7
	h-1.8l1.8-1.2V310.7L751.8,310.7z M747.8,298.4l0.4,0.3h-0.4V298.4L747.8,298.4z M747.5,305v5.8h-1.1V300h1.1v4.8V305z M734.6,310.8
	h6V300h-6v10.6V310.8z M731.8,298.8h-3.2v-39.2c0-2.7-0.9-4.9-2.5-6.4v-1.5h-0.3v-3.9h-2.5c0.4-1.8,1.6-3.1,3.2-3.1h2
	c1.8,0,3.3,1.9,3.3,4.3v49.4L731.8,298.8z M730.4,300.9h1.4v-1h-1.4v0.7V300.9z M728.5,300.9h0.9v-1h-0.9v0.7V300.9z M731.8,302.1
	l-1.9,2.3l-1.4-1.6v-1.5h3.2v0.8L731.8,302.1z M731.8,306.6L731.8,306.6l-1.7-2l1.6-2.1L731.8,306.6L731.8,306.6z M728.5,306v-3
	l1.1,1.5L728.5,306L728.5,306z M728.5,306.6v-0.1l1.3-1.6l1.4,1.8H728.5L728.5,306.6z M724.9,252h0.6v-3.8h-0.7v3.6L724.9,252z
	 M724.1,252h0.7v-3.8h-0.7v3.6V252z M724,252h-0.6v-3.8h0.6v3.6V252z M723.2,251.9l-0.2-0.1v-2.6c0-0.3,0.1-0.7,0.1-1h0.1v3.5
	L723.2,251.9z M720.2,249.3v-1.3h0.1c-0.1,0.3-0.1,0.7-0.1,1V249.3z M720.1,251.8c-0.2,0-0.4,0.1-0.7,0.1v-3.8h0.7v3.5L720.1,251.8z
	 M719.3,251.9h-0.6v-3.8h0.7v3.6L719.3,251.9z M717.8,251.9h0.6v-3.8h-0.6v3.6V251.9z M717,251.9h0.7v-3.8h-0.6v3.6L717,251.9z
	 M711.5,194.8h1v-2.9h-1V194.8z M709.7,194.8h1v-2.9h-1V194.8z M707.9,194.8h1v-2.9h-1V194.8z M706.1,194.8h1v-2.9h-1V194.8z
	 M704.3,194.8h1v-2.9h-0.9L704.3,194.8L704.3,194.8z M702.5,194.8h1v-2.9h-1V194.8z M700.7,194.8h1v-2.9h-1V194.8z M698.9,194.8h1
	v-2.9H699L698.9,194.8L698.9,194.8z M695.4,306.1h-5.1v-26.9h-2.4v-0.6H687v0.6h-2.5v26.9h-15.6v-26.9h-2.4v-0.6h-0.9v0.6h-2.4V306
	H661l-5.8-27.6h40.9L695.4,306.1L695.4,306.1z M690.1,285.9l-2.5-3.1l2.5-3.1C690.1,279.7,690.1,285.9,690.1,285.9z M690.1,292.8
	l-2.5-3.1l2.5-3.1C690.1,286.6,690.1,292.8,690.1,292.8z M690.1,299.8l-2.5-3.1l2.5-3.1V299.8L690.1,299.8z M690.1,306.1h-0.6
	l-1.9-2.4l2.5-3.1V306.1L690.1,306.1z M685.7,306.1l1.8-2.2l1.8,2.2L685.7,306.1L685.7,306.1z M687.3,296.7l-2.5,3.2v-6.3
	L687.3,296.7z M687.3,289.7l-2.5,3.2v-6.3L687.3,289.7L687.3,289.7z M687.3,282.8l-2.5,3.2v-6.3L687.3,282.8z M685,279.5h4.9
	l-2.5,3.1L685,279.5L685,279.5z M685,286.1l2.5-3.1l2.5,3.1H685L685,286.1z M685,286.5h4.9l-2.5,3L685,286.5L685,286.5z M685,293
	l2.5-3.1l2.5,3.1L685,293L685,293z M685,293.4h4.9l-2.4,3L685,293.4L685,293.4z M689.9,300.4l-2.4,3l-2.4-3L689.9,300.4L689.9,300.4
	z M684.9,300l2.5-3.1l2.5,3.1H684.9L684.9,300z M684.7,306.1v-5.6l2.6,3.2l-2,2.4H684.7L684.7,306.1z M668.7,285.9l-2.5-3.1l2.5-3.1
	L668.7,285.9L668.7,285.9z M668.7,292.8l-2.5-3.1l2.5-3.1L668.7,292.8L668.7,292.8z M668.7,299.8l-2.5-3.1l2.5-3.1L668.7,299.8
	L668.7,299.8z M668.7,306.1h-0.5l-2-2.4l2.5-3.1L668.7,306.1L668.7,306.1z M664.3,306.1l1.8-2.2l1.8,2.2H664.3L664.3,306.1z
	 M665.9,296.7l-2.5,3.1v-6.3L665.9,296.7L665.9,296.7z M665.9,289.7l-2.5,3.2v-6.3L665.9,289.7z M665.9,282.8l-2.5,3.2v-6.3
	L665.9,282.8z M663.6,279.5h4.9l-2.5,3.1L663.6,279.5L663.6,279.5z M663.6,286.1l2.5-3.1l2.5,3.1H663.6z M663.6,286.5h4.9l-2.4,3
	l-2.4-3H663.6z M663.6,293l2.5-3.1l2.5,3.1h-4.9L663.6,293z M663.7,293.4h4.9l-2.4,3L663.7,293.4L663.7,293.4z M668.6,300.4l-2.4,3
	l-2.4-3L668.6,300.4L668.6,300.4z M663.6,300l2.5-3.1l2.5,3.1H663.6L663.6,300z M663.5,306.1v-5.6l2.5,3.2l-2,2.4H663.5z M652.2,274
	h1.8v-2.9h-1.8V274L652.2,274z M650,274h1.8v-2.9H650L650,274L650,274z M647.8,274h1.8v-2.9h-1.8V274L647.8,274z M646.7,274h0.6
	v-2.9h-0.6L646.7,274L646.7,274z M646.4,254.6l-3.9-2.7v-0.8l4-2.7L646.4,254.6L646.4,254.6z M646.4,261.6l-3.9-2.7V258l4-2.7
	L646.4,261.6L646.4,261.6z M646.4,268.5l-3.9-2.7V265l4-2.7L646.4,268.5L646.4,268.5z M646.4,270.7h-2l2-1.4V270.7z M645.6,274h0.9
	v-2.8h-0.8L645.6,274L645.6,274z M645.2,274h-0.9l-0.9-0.6v-2l0.4-0.3h1.5L645.2,274L645.2,274z M643.4,274v-0.1l0.3,0.2L643.4,274
	L643.4,274z M642.6,270.7v-1.5h3.5l-2.2,1.5H642.6z M643,271.3l-0.4,0.3v-0.4L643,271.3L643,271.3L643,271.3z M643,273.2l-0.4-0.3
	V272l0.4-0.3V273.2L643,273.2z M643,274.1h-0.4v-0.8l0.4,0.3V274.1L643,274.1z M642.6,266.5l3.6,2.5h-3.6V266.5L642.6,266.5z
	 M642.6,262.4h3.5l-3.5,2.4L642.6,262.4L642.6,262.4z M642.6,259.6l3.6,2.5h-3.6V259.6L642.6,259.6z M642.6,255.5h3.5l-3.5,2.4
	V255.5L642.6,255.5z M642.6,252.6l3.6,2.4h-3.6v-2.5V252.6z M642.6,248.4h3.5l-3.5,2.4V248.4z M640.6,250.8l-3.5-2.3h3.5V250.8z
	 M640.6,252.2l-3.9,2.7v-6.3l3.9,2.7V252.2L640.6,252.2z M640.6,255h-3.5l3.5-2.4L640.6,255L640.6,255z M640.6,257.7l-3.4-2.3h3.5
	L640.6,257.7L640.6,257.7z M640.6,259.1l-3.9,2.7v-6.3l3.9,2.7V259.1L640.6,259.1z M640.6,262h-3.5l3.5-2.4V262z M640.6,264.7
	l-3.4-2.3h3.5L640.6,264.7L640.6,264.7z M640.6,266.1l-3.9,2.7v-6.3l3.9,2.7V266.1L640.6,266.1z M640.6,269h-3.5l3.5-2.4V269z
	 M640.6,270.9h-1.2l-2.2-1.5h3.4V270.9z M640.6,271.7l-0.4-0.3h0.5L640.6,271.7L640.6,271.7z M640.6,273.1l-1.6,1.1v-2.9h0.5
	l1.2,0.8L640.6,273.1L640.6,273.1z M640.6,274.3h-1l1-0.7V274.3z M638.6,270.9h-1.9v-1.5l2.1,1.5H638.6L638.6,270.9z M636.7,274.3
	h1.8v-2.9h-1.8V274.3L636.7,274.3z M634.5,274.3h1.8v-2.9h-1.8V274.3L634.5,274.3z M632.3,274.3h1.8v-2.9h-1.8V274.3L632.3,274.3z
	 M630,274.3h1.8v-2.9H630L630,274.3L630,274.3z M629.6,274.3h-0.3l-0.1-2.8h0.4L629.6,274.3L629.6,274.3z M626.8,216.7h0.6v-2.3
	h-0.6v2V216.7z M625.6,216.7h0.6v-2.3h-0.6v2V216.7z M624.5,216.7h0.6v-2.3h-1v2L624.5,216.7z M623.3,216.7h0.6v-2.3h-0.6v2V216.7z
	 M622.1,216.7h0.6v-2.3h-0.6v2V216.7z M620.9,216.7h0.6v-2.3h-0.6v2V216.7z M619.6,216.7h0.6v-2.3h-0.6v2V216.7z M618.4,216.7h0.6
	v-2.3h-0.6v2V216.7z M616.5,272.1v-0.7V272.1L616.5,272.1z M614.3,274.3h1.8v-2.9h-1.9v2.9L614.3,274.3z M612.1,274.3h1.8v-2.9h-1.8
	V274.3L612.1,274.3z M609.8,274.3h1.8v-2.9h-1.9v2.9L609.8,274.3z M604,301l-4.3,20.9v-67.1c0-2.7-1.3-5-3.3-6.5v-1.6h-0.4v-3.9
	h-3.4c0.5-1.8,2.2-3.2,4.2-3.2h2.7c2.4,0,4.4,2,4.4,4.4c0,0,0,0,0,0V301L604,301z M594.6,246.7h0.9v-3.8h-0.9V246.7L594.6,246.7z
	 M593.6,246.7h0.9v-3.8h-0.9V246.7L593.6,246.7z M593.4,246.7h-1c0,0,0,0-0.1,0v-3.8h0.9v3.7L593.4,246.7z M592.4,246.7l-0.3-0.1
	V244c0-0.4,0.1-0.7,0.1-1.1h0.1v3.7V246.7z M588.4,244v-1.1h0.1C588.4,243.3,588.4,243.6,588.4,244L588.4,244z M588.3,246.6
	l-0.9,0.1v-3.8h0.9V246.6L588.3,246.6z M587.2,246.7h-1.1v-3.8h0.9v3.7L587.2,246.7z M585.3,246.7h0.9v-3.8h-0.9V246.7L585.3,246.7z
	 M584.3,246.7h0.9v-3.8h-1L584.3,246.7L584.3,246.7z M577.9,258.1h2.6v-1.5h-2.6V258.1z M577.9,259.8h2.6v-1.7h-2.6v1.5V259.8z
	 M577.9,261.5h2.6V260h-2.6V261.5L577.9,261.5z M577.9,263.2h2.6v-1.5h-2.6V263.2L577.9,263.2z M577.9,264.8h2.6v-1.6h-2.6v1.5
	V264.8z M577.9,266.5h2.6V265h-2.6V266.5L577.9,266.5z M577.9,268.1h2.6v-1.5h-2.6V268.1L577.9,268.1z M577.9,269.9h2.6v-1.6h-2.6
	v1.5V269.9z M577.9,271.5h2.6V270h-2.6V271.5L577.9,271.5z M577.9,273.2h2.6v-1.8h-2.6v1.5V273.2z M577.9,274.9h2.6v-1.6h-2.6v1.5
	V274.9z M577.9,276.6h2.6v-1.5h-2.6V276.6L577.9,276.6z M577.9,278.3h2.6v-1.8h-2.6v1.5V278.3z M577.9,279.9h2.6v-1.6h-2.6v1.5
	V279.9z M577.9,281.7h2.6v-1.5h-2.6V281.7L577.9,281.7z M577.9,283.3h2.6v-1.5h-2.6V283.3L577.9,283.3z M577.9,285h2.6v-1.6h-2.6
	V285L577.9,285z M577.9,286.7h2.6v-1.5h-2.6V286.7z M577.9,288.4h2.6v-1.8h-2.6v1.5V288.4z M577.9,290h2.6v-1.5h-2.6V290L577.9,290z
	 M577.9,291.7h2.6v-1.5h-2.6V291.7z M577.9,293.3h2.6v-1.6h-2.6v1.5V293.3z M577.9,294.9h2.6v-1.5h-2.6V294.9L577.9,294.9z
	 M577.9,296.6h2.6v-1.5h-2.6V296.6L577.9,296.6z M579.2,312.4h1.1v-2h-1.1L579.2,312.4L579.2,312.4z M577.9,312.4h1.1v-2h-1.1V312.4
	z M576.5,312.4h1.1v-2h-1.1V312.4z M575.2,312.4h1.1v-2h-1.1V312.4z M573.9,312.4h1.1v-2h-1.1V312.4z M572.6,312.4h1.1v-2h-1.1
	V312.4z M571.3,312.4h1.1v-2h-1.1V312.4z M570,312.4h1.1v-2H570V312.4z M568.6,312.4h1.1v-2h-1.3v2H568.6z M567.3,312.4h1.1v-2h-1.2
	v2H567.3z M566,312.4h1.1v-2H566V312.4z M564.6,312.4h1.1v-2h-1.1L564.6,312.4L564.6,312.4z M563.3,312.4h1.1v-2h-1.1V312.4z
	 M553.5,354.3c-0.1,0-0.2,0-0.3,0h-7v-3.2c0-2.1,1.7-3.7,3.7-3.7h0.1c0,0.9,0.8,1.6,1.7,1.6h2.9L553.5,354.3L553.5,354.3z
	 M552.8,357.2h-6.6v-1.3h6.9L552.8,357.2L552.8,357.2z M541.9,357.2h1.2v-1.3h-1.2L541.9,357.2L541.9,357.2z M541.2,320.9h0.6v-1.3
	h-0.6V320.9z M541.2,322.3h0.6v-1.3h-0.6V322.3L541.2,322.3z M541.2,323.8h0.6v-1.3h-0.6V323.8z M541.2,325.2h0.6V324h-0.6V325.2z
	 M541.2,326.7h0.6v-1.3h-0.6V326.7z M541.2,328.1h0.6v-1.3h-0.6V328.1z M541.2,329.6h0.6v-1.3h-0.6V329.6z M541.2,331h0.6v-1.3h-0.6
	V331z M541.2,332.5h0.6v-1.3h-0.6V332.5z M541.2,333.9h0.6v-1.3h-0.6V333.9z M541.2,335.4h0.6v-1.3h-0.6V335.4z M541.2,336.8h0.6
	v-1.3h-0.6V336.8z M541.2,338.3h0.6V337h-0.6V338.3z M541.2,339.7h0.6v-1.3h-0.6V339.7z M541.2,341.2h0.6v-1.4h-0.6v1.3V341.2z
	 M541.2,342.6h0.6v-1.3h-0.6V342.6z M541.2,344h0.6v-1.3h-0.6V344z M541.2,345.5h0.6v-1.3h-0.6V345.5z M541.2,346.9h0.6v-1.3h-0.6
	V346.9z M541.2,348.4h0.6v-1.3h-0.6V348.4z M541.2,349.8h0.6v-1.3h-0.6V349.8z M541.2,351.3h0.6V350h-0.6V351.3z M541.2,352.8h0.6
	v-1.3h-0.6V352.8z M541.2,354.2h0.6v-1.3h-0.6V354.2z M541.2,354.5h0.6v-0.1h-0.6V354.5z M541.2,357.4h0.6v-1.3h-0.6V357.4
	L541.2,357.4z M541.1,321.1h-0.7v-1.3h0.7L541.1,321.1L541.1,321.1z M540.4,322.6h0.7v-1.2h-0.8L540.4,322.6L540.4,322.6z
	 M540.4,324h0.7v-1.3h-0.8L540.4,324L540.4,324z M540.4,325.5h0.7v-1.3h-0.8L540.4,325.5L540.4,325.5z M540.4,326.9h0.7v-1.3h-0.8
	L540.4,326.9L540.4,326.9z M540.4,328.4h0.7v-1.3h-0.8L540.4,328.4L540.4,328.4z M540.4,329.8h0.7v-1.3h-0.8L540.4,329.8
	L540.4,329.8z M540.4,331.3h0.7V330h-0.8L540.4,331.3L540.4,331.3z M541.1,332.8h-0.8v-1.3h0.7L541.1,332.8L541.1,332.8z
	 M540.3,334.2h0.7v-1.3h-0.7V334.2z M540.3,335.7h0.7v-1.3h-0.7V335.7z M540.3,337.1h0.7v-1.3h-0.7V337.1z M540.3,338.6h0.7v-1.3
	h-0.7V338.6z M540.3,340h0.7v-1.3h-0.7V340z M540.3,341.5h0.7v-1.3h-0.7V341.5z M540.3,342.9h0.7v-1.3h-0.7V342.9z M540.3,344.4h0.7
	v-1.3h-0.7V344.4z M541,345.9h-0.7v-1.3h0.8L541,345.9L541,345.9z M540.3,347.3h0.8V346h-0.7L540.3,347.3L540.3,347.3z M540.3,348.8
	h0.8v-1.3h-0.7L540.3,348.8L540.3,348.8z M540.3,350.2h0.8V349h-0.7L540.3,350.2L540.3,350.2z M540.3,351.7h0.8v-1.3h-0.7
	L540.3,351.7L540.3,351.7z M540.3,353.1h0.8v-1.3h-0.7L540.3,353.1L540.3,353.1z M540.3,354.6h0.8v-1.3h-0.7L540.3,354.6
	L540.3,354.6z M540.3,354.9h0.8v-0.1h-0.7L540.3,354.9L540.3,354.9z M541.1,357.8h-36.8v-1.6h6.5v1.1h3.2v-1.1h7.4
	c0.1,0.3,0.3,0.6,0.7,0.6h1.6c0.3,0,0.6-0.3,0.7-0.6h5v1.1h11.2v-1.1h0.8v1.3L541.1,357.8z M510.8,356.4h0.8l-0.7,0.8v-1
	L510.8,356.4z M510.8,354.1l0.6,0.7h-0.6L510.8,354.1L510.8,354.1z M510.9,353.9l0.9-1v1H510.9z M511.8,356.5v0.9h-0.9L511.8,356.5
	L511.8,356.5L511.8,356.5z M511.7,354.9l-0.7-0.8h0.9v0.6h-0.2L511.7,354.9z M510.8,350.5l1,1.1v0.9l-0.9,1.1L510.8,350.5
	L510.8,350.5z M511.8,350.4v0.9l-0.8-1L511.8,350.4L511.8,350.4z M511,350.2l0.9-1v0.9L511,350.2L511,350.2z M510.9,346.9l1,1.1v0.9
	l-1.1,0.9v-3.2L510.9,346.9z M511.9,346.8v0.9l-0.8-1L511.9,346.8L511.9,346.8z M512.9,356.2L512.9,356.2l0.9,0.9H513L512.9,356.2
	L512.9,356.2z M512.9,353.8h0.9l-0.6,0.7H513v-0.8L512.9,353.8z M512.9,352.6l0.9,1H513v-1.2L512.9,352.6z M513.9,356.2v0.8
	l-0.8-0.8L513.9,356.2L513.9,356.2z M513.3,354.6l0.6-0.7v0.6L513.3,354.6L513.3,354.6z M513,351.5l1-1.1v3.2l-1-1.1L513,351.5
	L513,351.5z M513,350.3h0.9l-0.9,0.9L513,350.3L513,350.3z M513,349.1l0.9,0.9H513L513,349.1L513,349.1z M513,347.9l1-1.1v3.2
	l-1-1.1L513,347.9L513,347.9z M513,346.7h0.9l-0.9,0.9L513,346.7L513,346.7z M529.5,319.7h0.9v-1.5h-0.9L529.5,319.7L529.5,319.7z
	 M529.7,331.7v-11l3.5,3.9v3.1L529.7,331.7L529.7,331.7z M530.1,332l3.1-3.5v3.5H530.1L530.1,332z M530.1,332.6h3v3.4L530.1,332.6
	L530.1,332.6z M529.7,343.9v-11.1l3.5,3.9v3.1l-3.5,3.9V343.9z M530.1,344.3l3.1-3.5v3.5L530.1,344.3L530.1,344.3z M530.2,344.9h3
	v3.4L530.2,344.9z M529.8,356.1L529.8,356.1L529.8,356.1L529.8,356.1z M531.2,354.5h-1.5v-9.3l3.5,3.9v3.1L531.2,354.5L531.2,354.5z
	 M533.2,356v0.4h-3.1l0.4-0.5L533.2,356L533.2,356z M531.9,354.4l1.3-1.5v1.5H531.9z M533.2,320.1v3.5l-3-3.5H533.2z M530.6,319.4
	h0.9v-1.5h-1.1v1.5H530.6z M531.7,319.4h0.9v-1.5h-0.9L531.7,319.4L531.7,319.4z M532.8,319.4h0.4v-1.5h-0.3L532.8,319.4
	L532.8,319.4z M536.7,355.9h2.6l0.4,0.4h-3L536.7,355.9L536.7,355.9z M536.7,352.9l1.2,1.3h-1.2V352.9L536.7,352.9z M540.2,355.9
	v0.1l-0.1-0.2L540.2,355.9L540.2,355.9z M536.7,348.8l3.5-3.9v9.4h-1.6l-1.9-2.2V348.8L536.7,348.8z M536.7,344.7h2.9l-2.9,3.3v-3.2
	V344.7z M536.7,340.6l3,3.4h-3L536.7,340.6L536.7,340.6z M536.7,336.5l3.5-3.9v11.1l-3.5-3.9v-3.2V336.5z M536.7,332.4h2.9l-2.9,3.4
	L536.7,332.4L536.7,332.4z M536.7,328.3l3,3.4h-3V328.3L536.7,328.3z M536.7,324.2l3.5-3.9v11.3l-3.5-3.9v-3.3V324.2z M536.7,320h3
	l-3,3.4v-3.2V320z M536.7,319.4h0.3v-1.5h-0.4L536.7,319.4L536.7,319.4z M537.3,319.4h0.9v-1.5h-0.9L537.3,319.4L537.3,319.4z
	 M538.3,319.4h0.9v-1.5h-0.9L538.3,319.4L538.3,319.4z M539.5,319.4h0.9v-1.5h-1.1v1.5H539.5z M502.3,354.2h-5.6v-1.8h4.7
	c0.3,0,0.6,0.1,0.9,0.3V354.2L502.3,354.2z M496.7,357h5.6v-1.3h-5.6V357L496.7,357z M493.7,359.6h-6.4v-8.7h6.4V359.6z
	 M487.3,362.7h4.9v-0.8h-4.9V362.7L487.3,362.7z M469.3,357.2h4.9v5.4h-5.1v-5.4H469.3z M467.8,346.3h8.6v8.6h-0.7v-4.8h-0.3v-0.9
	h-0.1v0.9H475v-0.9h-0.1v0.9h-0.3v-0.9h-0.1v0.9h-0.3v4.8h-6.5L467.8,346.3L467.8,346.3z M479.4,362.6h2.7v-0.7h-2.9v0.8
	L479.4,362.6z M479.4,358.5l1.3-1.3h2.8v2.4h-4.4v-1.1H479.4z M479.4,347.7h5.6v2.5h-0.3v-0.9h-0.1v0.9h-0.3v-0.9h-0.1v0.9H484v-0.9
	h-0.1v0.9h-0.3v2.5h-0.4v0.7h-3.8L479.4,347.7L479.4,347.7z M466.3,355h-5.2l1-1l4.2-4.2L466.3,355L466.3,355z M464.7,362.6h-1.3
	v-0.7h-0.9V361h-0.9v-0.9h-0.9v-0.9h-0.9v-0.9h-0.9v-0.9h5.6v5.4L464.7,362.6z M459.1,362.6v-3.1l3.2,3.2h-3.4L459.1,362.6z
	 M442.5,283.7c0.2-0.1,0.5-0.2,0.6-0.4l-0.3-0.3c-0.2,0.2-0.4,0.3-0.6,0.3h-0.1c-0.2,0-0.4,0-0.6,0l-0.1,0c-0.2-0.1-0.4-0.2-0.6-0.4
	l-0.3,0.4c0.2,0.2,0.5,0.3,0.8,0.4l-2.7,21.1h-19.9l-2.4,2.2v-0.6l2.4-2.1l0,0.1v-0.1h-2.4v-0.6l24.5-21.6v0.1
	c0.1,0.6,0.7,1,1.2,0.8c0.4-0.1,0.8-0.4,0.8-0.8c0-0.1,0-0.1,0-0.2l33.7,23.1h-23.4l-5.8,6.1h-0.4v-0.6h-0.1l-4.3-26.6L442.5,283.7z
	 M445.9,310.3v0.6c0,0-0.1,0-0.1,0.1l-2.8-3.8v-1l2.1-2.8l1.1,7L445.9,310.3L445.9,310.3z M445.9,320.4c-0.1,0-0.2,0-0.2,0.1
	l-2.8-3.3v-0.8l2.8-3.3c0,0,0.1,0.1,0.2,0.1h0.1v7.2L445.9,320.4z M445.9,329.8c-0.1,0-0.1,0.1-0.1,0.1l-2.8-3.3v-0.8l2.8-3.3
	c0.1,0.1,0.1,0.1,0.2,0.1h0.1v7.1H445.9z M445.9,339.1c-0.1,0-0.1,0.1-0.2,0.1L443,336v-0.8l2.8-3.3c0,0.1,0.1,0.1,0.2,0.1h0.1v7.1
	L445.9,339.1z M445.9,348.6c-0.1,0-0.1,0.1-0.2,0.1l-2.8-3.3v-0.8l2.8-3.3c0,0.1,0.1,0.1,0.2,0.1h0.1v7.1L445.9,348.6z M445.9,352.9
	h-2.2l1.9-2.2c0.1,0.1,0.1,0.1,0.2,0.1h0.1L445.9,352.9L445.9,352.9z M441.3,352.9l-2.3-2.7v-0.4h6.6v0.4l-2.3,2.7h-2.2H441.3z
	 M438.8,352.9v-2.1h0.1c0.1,0,0.1-0.1,0.2-0.1l1.9,2.2h-2.3H438.8z M441.8,306.3v0.9l-2.8,3.9c0,0-0.1-0.1-0.1-0.1h-0.1v-0.6h-0.2
	l0.9-7.3L441.8,306.3L441.8,306.3z M439,312v-0.5l2.9-3.9c0,0,0,0.1,0.1,0.1h0.9l2.9,3.9v0.5L439,312L439,312z M442.9,316.1
	C442.9,316.1,442.9,316,442.9,316.1l-1.1-0.1c0,0-0.1,0.1-0.1,0.1l-2.9-3.4v-0.4h6.7v0.4l-2.9,3.3L442.9,316.1z M439.1,321.4V321
	l2.8-3.3c0,0,0.1,0.1,0.1,0.1h0.8c0,0,0,0,0.1,0l2.8,3.4v0.4L439.1,321.4L439.1,321.4z M442.8,325.4h-1c0,0-0.1,0-0.1,0.1l-2.9-3.4
	v-0.4h6.7v0.4l-2.8,3.3h-0.1L442.8,325.4z M439.1,330.8v-0.4l2.8-3.3c0,0.1,0.1,0.1,0.1,0.1h0.8c0.1,0,0.1,0,0.1,0l2.9,3.4v0.4
	L439.1,330.8L439.1,330.8z M442.8,334.8h-1c0,0-0.1,0-0.1,0.1l-2.8-3.3v-0.4h6.7v0.4l-2.8,3.4h-0.1L442.8,334.8z M439.1,340.1v-0.3
	l2.9-3.3c0,0,0,0.1,0.1,0.1h0.9l2.8,3.3v0.3L439.1,340.1L439.1,340.1z M442.9,344.2C442.9,344.2,442.9,344.2,442.9,344.2h-1.1
	c0,0-0.1,0-0.1,0l-2.9-3.4v-0.6h6.7v0.5l-2.9,3.4L442.9,344.2z M439.1,349.1l2.8-3.3l0.1,0.1h0.8c0,0,0,0,0.1,0l2.9,3.3v0.4h-6.6
	v-0.4L439.1,349.1z M438.9,341.4c0.1,0,0.1-0.1,0.2-0.1l2.8,3.3v0.8l-2.8,3.3c-0.1-0.1-0.1-0.1-0.2-0.1h-0.1L438.9,341.4
	L438.9,341.4z M438.9,332.1c0.1,0,0.2,0,0.2-0.1l2.8,3.3v0.8l-2.8,3.3c0-0.1-0.1-0.1-0.2-0.1h-0.1L438.9,332.1L438.9,332.1
	L438.9,332.1z M438.9,320.5v-7.3h0.1c0.1,0,0.1,0,0.2-0.1l2.8,3.3v0.8l-2.8,3.3c0-0.1-0.1-0.1-0.1-0.1h-0.1L438.9,320.5z
	 M438.9,322.8c0.1,0,0.2,0,0.2-0.1l2.8,3.3v0.8l-2.8,3.3c0-0.1-0.1-0.1-0.2-0.1h-0.1L438.9,322.8L438.9,322.8L438.9,322.8z
	 M445,302.7l0.1,0.4l-2.2,2.9h-1.1l-2.4-3.2v-0.1h5.3H445z M442.1,297.5h0.4l2.4,4.4l0.1,0.4h-5.2l0.1-0.1l2.3-4.7L442.1,297.5z
	 M441.8,296v1.3c0,0.1,0.1,0.1,0.1,0.1l-2,4.1l0.7-7.4l1,1.9L441.8,296z M443.7,294.2l1.1,7l-2-3.7c0,0,0.1-0.1,0.1-0.1v-1.4
	C442.9,295.9,443.7,294.2,443.7,294.2z M440.9,293.3l1.2-9.4l1.5,9.4h-3H440.9z M443.7,293.6v0.2l-0.9,2h-0.9l-1.1-2v-0.1h2.8H443.7
	z M438.2,310.4H438v0.6h-1.2l-5.3-5.4h7.2l-0.6,4.9L438.2,310.4z M438,320.5L438,320.5c-0.2,0-0.2,0.1-0.3,0.2v1.9
	c0,0.1,0.1,0.2,0.2,0.2h0.1v7.2h-0.1c-0.1,0-0.2,0.1-0.2,0.2v1.8c0,0.1,0.1,0.2,0.2,0.2h0.1v7h-0.1c-0.1,0-0.2,0.1-0.2,0.2v1.8
	c0,0.1,0.1,0.2,0.2,0.2h0.1v7.2h-0.1c-0.1,0-0.2,0.1-0.2,0.2v1.8c0,0.1,0.1,0.2,0.2,0.2h0.1v2.1h-5.6v-31.3h-16.1v-3.8h2.5v-1h-2.4
	v-0.4h2.3v-1h-2.4v-0.4h2.4v-0.9h-2.4v-0.4h2.4v-1h-2.4v-0.5h21.2v1.1c0,0.1,0.1,0.2,0.2,0.2h0.1v7.2L438,320.5z M430.4,305.6h0.4
	l5.3,5.4h-10.9L430.4,305.6L430.4,305.6z M424.7,311h-0.2l-5.3-5.4H430L424.7,311L424.7,311z M416.1,310.6h2.5v-4.4l-2.4,2.2v-0.7
	l2.5-2.2h0.3l5.3,5.5h-8L416.1,310.6L416.1,310.6z M441.6,281.6c0.3,0,0.6,0.3,0.6,0.6s-0.3,0.6-0.6,0.6c-0.3,0-0.5-0.3-0.5-0.6
	C441.2,281.9,441.4,281.7,441.6,281.6L441.6,281.6z M499.9,305h-23l-33.5-23L499.9,305z M494.9,311.1h-0.2l-5.4-5.6h11.1
	L494.9,311.1L494.9,311.1z M507,311.1h-11.5l5.4-5.6l6.2,5.6L507,311.1z M483.5,311.1l5.4-5.6l5.4,5.7L483.5,311.1L483.5,311.1z
	 M482.9,311.1l-5.4-5.7h11.1l-5.5,5.7H482.9z M471.6,311.1l5.4-5.6l5.4,5.6H471.6L471.6,311.1z M471,311.1l-5.4-5.6h11.1l-5.4,5.7
	L471,311.1L471,311.1z M459.7,311.1l5.4-5.6l5.4,5.6h-11H459.7z M459.1,311.1l-5.4-5.6h11l-5.4,5.7h-0.3L459.1,311.1z M447.7,311.1
	l5.4-5.6l5.5,5.7h-11.1L447.7,311.1z M447.2,320.7c0-0.1-0.1-0.2-0.2-0.2h-0.1v-7.2h0.1c0.1,0,0.2-0.1,0.2-0.2V320.7L447.2,320.7z
	 M326.4,336h5.6v-5.6h-5.6V336z M326.4,345.5h5.6v-5.6h-5.6V345.5z M326.4,352.8h5.6V350h-5.6V352.8L326.4,352.8z M314.8,337.6h8.6
	V329h-8.6V337.6L314.8,337.6z M316.3,345.5h5.6v-5.6h-5.6V345.5z M316.4,352.8h5.5v-2.9h-5.6L316.4,352.8L316.4,352.8z M313.3,337.6
	h-5.2l1-1l4.2-4.2C313.3,332.4,313.3,337.6,313.3,337.6z M311.7,345.4h-0.3v-0.2h-0.9v-0.9h-0.9v-0.9h-0.9v-0.9h-0.9v-0.9h-0.9v-0.9
	H306v-0.9h5.6v5.6L311.7,345.4z M306.1,345.4v-3.3l3.4,3.3H306.1z M199.5,284.4c0,0-0.1,0-0.1,0l-2.2-2.8v-0.7l1.7-2.3l0.6,5.3h0.5
	l-0.4-3.6h5.3l-3.9,4h-1.6L199.5,284.4z M199.5,291.3L199.5,291.3c-0.1,0-0.2,0-0.2,0.1l-2.1-2.4v-0.6l2.1-2.5c0,0,0.1,0.1,0.1,0.1
	L199.5,291.3L199.5,291.3z M199.5,298.1L199.5,298.1c-0.1,0-0.2,0-0.2,0.1l-2.1-2.5v-0.6l2.1-2.4c0,0.1,0.1,0.1,0.1,0.1v5.2
	L199.5,298.1z M199.5,304.9L199.5,304.9c-0.1,0-0.2,0-0.2,0.1l-2.1-2.4V302l2.1-2.4c0,0.1,0.1,0.1,0.1,0.1L199.5,304.9L199.5,304.9z
	 M199.5,311.7L199.5,311.7c-0.1,0-0.2,0-0.2,0.1l-2.1-2.4v-0.6l2.1-2.4c0,0,0.1,0.1,0.1,0.1L199.5,311.7L199.5,311.7z M199.5,318.6
	L199.5,318.6c-0.1,0-0.2,0-0.2,0.1l-2.1-2.4v-0.6l2.1-2.4c0,0,0.1,0.1,0.1,0.1L199.5,318.6L199.5,318.6z M199.5,321.4h-1.3l1.1-1.3
	c0,0.1,0.1,0.1,0.1,0.1h0.1L199.5,321.4L199.5,321.4z M195.8,321.4l-1.4-1.6v-0.3h4.9v0.3l-1.4,1.6H195.8L195.8,321.4z M194.2,321.4
	v-1.2c0.1,0,0.1-0.1,0.1-0.1l1.1,1.3L194.2,321.4L194.2,321.4z M194.2,313.3c0.1,0,0.1-0.1,0.1-0.1l2,2.4v0.6l-2.1,2.4
	c-0.1-0.1-0.1-0.1-0.1-0.1h-0.1v-5.2L194.2,313.3z M194.2,306.4L194.2,306.4l2.2,2.3v0.6l-2,2.4c-0.1-0.1-0.1-0.1-0.1-0.1
	L194.2,306.4L194.2,306.4z M194.2,299.6c0.1,0,0.1-0.1,0.1-0.1l2,2.4v0.6l-2.1,2.4c-0.1-0.1-0.1-0.1-0.1-0.1h-0.1v-5.2L194.2,299.6z
	 M194.2,292.7c0.1,0,0.1-0.1,0.1-0.1l2,2.4v0.6l-2.1,2.4c-0.1,0-0.1-0.1-0.1-0.1h-0.1v-5.2H194.2z M194.2,285.8L194.2,285.8l2.2,2.3
	v0.6l-2.1,2.4c0,0,0-0.1-0.1-0.1h-0.1V286L194.2,285.8z M194.4,291.7v-0.3l2.1-2.5h0.6c0,0,0.1,0,0.1-0.1l2.1,2.4v0.3L194.4,291.7
	L194.4,291.7z M197.1,294.6h-0.6l-2.1-2.4v-0.3h4.9v0.3l-2.1,2.4C197.2,294.6,197.2,294.6,197.1,294.6L197.1,294.6z M194.4,298.6
	v-0.3l2.1-2.5h0.6c0,0,0.1,0,0.1-0.1l2.1,2.4v0.3h-4.9L194.4,298.6z M197.1,301.5h-0.6l-2.1-2.5v-0.3h4.9v0.3L197.1,301.5
	C197.1,301.4,197.1,301.4,197.1,301.5L197.1,301.5z M194.4,305.4v-0.3l2.1-2.5h0.6l0.1-0.1l2.1,2.4v0.3h-4.9L194.4,305.4z
	 M197.1,308.4h-0.6c0,0,0,0-0.1,0l-2.1-2.5v-0.3h4.9v0.3L197.1,308.4C197.2,308.3,197.1,308.3,197.1,308.4L197.1,308.4z
	 M194.4,312.3V312l2.1-2.5h0.7l2.1,2.4v0.3h-4.9L194.4,312.3z M199.3,318.9v0.3h-4.9v-0.3l2.1-2.5h0.6c0,0,0.1-0.1,0.1-0.1
	L199.3,318.9L199.3,318.9z M197.1,315.2h-0.7l-2.1-2.5v-0.3h4.9v0.3l-2.1,2.4c0,0,0-0.1-0.1-0.1L197.1,315.2z M194.3,285h4.9v0.3
	l-2.1,2.4c0-0.1-0.1-0.1-0.1-0.1h-0.6l-2.1-2.3L194.3,285L194.3,285z M194.3,284.4l2.1-2.8h0.6l2.2,3v0.4h-4.9v-0.4L194.3,284.4z
	 M194.9,278.2v-0.3h3.9v0.1l-1.8,2.3h-0.6L194.9,278.2L194.9,278.2z M195,277.4l1.7-3.2h0.3l1.7,3.5v0.1H195L195,277.4L195,277.4z
	 M195.9,271.8l0.6,1.3v0.9c0,0.1,0,0.1,0.1,0.1l-1.5,2.7l0.8-5.1V271.8z M196,271.3h2.1v0.1l-0.8,1.5h-0.6L196,271.3v-0.1V271.3z
	 M197.1,264.2l0.8,7H196L197.1,264.2z M198.7,277.1l-1.5-3c0,0,0.1-0.1,0.1-0.1v-0.7l0.7-1.4l0.6,5.4L198.7,277.1z M205.4,280l3.9,4
	h-8l3.9-4H205.4L205.4,280z M213.6,280l-3.9,4h-0.1l-3.9-4H213.6L213.6,280z M214.1,280l4.4,4h-8.3L214.1,280h0.1H214.1z M193.4,291
	L193.4,291c-0.1,0-0.2,0.1-0.2,0.1v-5.6c0,0.1,0.1,0.2,0.1,0.2h0.1L193.4,291L193.4,291z M192.7,289.8H188c0.3-2.2,1.1-4.2,2.1-4.2
	h2.9v4.2L192.7,289.8z M184.8,284.1l4-4.2l4,4.1L184.8,284.1L184.8,284.1z M184.3,284.1l-4.1-4.2h8.2l-4,4.2H184.3L184.3,284.1z
	 M176.1,284.1l4-4.1l4,4.1L176.1,284.1L176.1,284.1z M175.5,284.1l-4-4.2h8.2l-4,4.2H175.5L175.5,284.1z M167.3,284.1l4-4.1l4,4.1
	L167.3,284.1L167.3,284.1z M166.8,284.1l-4-4.2h8.2l-4,4.2H166.8L166.8,284.1z M158.5,284.1l4-4.1l4,4.1L158.5,284.1L158.5,284.1z
	 M158.1,284.1l-4-4.2h8.2l-4,4.2C158.3,284.1,158.1,284.1,158.1,284.1z M149.3,284.1l4.5-4.1l4,4.1h-8.4H149.3z M195.9,262.8
	l-24.6,16.8h-16.8L195.9,262.8z M197.1,262.5c0.2,0,0.4,0.1,0.4,0.3c0,0.2-0.1,0.4-0.3,0.4c0,0-0.1,0-0.1,0
	c-0.2-0.1-0.3-0.3-0.3-0.5C196.9,262.6,197,262.5,197.1,262.5L197.1,262.5z M447.5,312.9h3.9c1.3,0,2.5,2.8,2.8,5.7h-6.8V312.9
	L447.5,312.9z M860.7,331v-1.4h-52.2v-18.9h-2.4v-0.5h2.4v-1.4h-19.7v-38h-25.4v27.5h-5v-63.4h-4.3v-2.7h1.5v-9.2h-4.9v9.2h1.5v2.7
	h-4.3v63.5h-1v-30.1h-6v30.1h-6v-49.4c0-4.4-2.7-7-6.1-7h-2c-3.1,0-5.6,2.1-6.1,5.8h-3.3v3.8h-0.3v1.5c-0.3,0.2-0.5,0.5-0.7,0.8
	l1.1,52.3h-2l-0.9-41.6v-0.2l-0.1-1.5h0.1v-0.2h-0.1l-0.1-1.5h0.1V261h-0.1l-1.3-66.1H713v-3.2h-15.2v3.2h-0.1l-2,82.2h-41.3
	l-0.6-3.1v-3.3h-7.6v-22.8H642v-2.2h0.7v-5.9h-3.4v5.9h0.7v2.2h-4.3v22.8h-7.1l-1.1-54.2h-0.1v-2h0v-0.2h-10.1v2.1h-0.1l-1.3,54.2
	h-7v3.4l-1.7,8.4v-38.6c0-4.5-3.6-8.2-8.1-8.2h-2.7c-4,0-7.4,2.9-8,6.9h-4.4v3.9h-0.4v1.5c-2.1,1.5-3.3,3.9-3.3,6.5v1.6h-2.6v-0.9
	h-0.4v45.8h0.4v-4.4h2.6v13.3h-17.4v2.3l-6.8,30.3c-0.2,0-0.3-0.1-0.5-0.1h-0.3v-3.3c0-0.9-0.3-1.6-0.8-1.6h-0.3v-1.9
	c0-0.4,0-0.8-0.1-1h0.9c0.3,0,0.6,0,0.9,0c0.1,0.3,0.5,0.4,0.8,0.3c0.3-0.1,0.4-0.5,0.3-0.8c-0.1-0.3-0.5-0.4-0.8-0.3
	c-0.1,0.1-0.3,0.2-0.3,0.3c-0.2,0-0.5,0-0.9,0h-3.7c-0.1-0.3-0.5-0.4-0.8-0.3c-0.2,0.1-0.3,0.3-0.4,0.5c0,0.3,0.2,0.6,0.6,0.6
	c0.2,0,0.5-0.1,0.5-0.3h1.8c-0.1,0.3-0.1,0.6-0.1,1v2h-0.3c-0.4,0-0.8,0.8-0.8,1.6v3.4h-0.3c-0.9,0-1.6,0.7-1.6,1.6v0.3H550
	c-3.8,0-6.8,3.1-6.8,6.8v3H542v-34.9h-1.5v-1.6h-3.8V312h0.5l0.8-5.2h-6l0.8,5.2h0.5v5.6h-4.1v36.7h-5c-0.1-0.3-0.3-0.5-0.6-0.5
	h-0.1v-1.4c0-0.4-0.1-0.7-0.3-0.7H523V351c0-0.2,0-0.3,0-0.4h0.7c0,0.1,0.1,0.1,0.2,0.1c0.1,0,0.2-0.1,0.2-0.3
	c0-0.1-0.1-0.2-0.2-0.3c-0.1,0-0.2,0-0.2,0.1c-0.1-0.1-0.2-0.1-0.4-0.1h-1.5c-0.1-0.1-0.2-0.2-0.3-0.1c-0.1,0-0.1,0.1-0.1,0.2
	c0,0.1,0.1,0.3,0.2,0.3c0.1,0,0.2-0.1,0.2-0.1h0.7c0,0.1,0,0.3,0,0.4v0.8h-0.1c-0.2,0-0.3,0.3-0.3,0.6v1.3H522
	c-0.4,0-0.6,0.2-0.7,0.5h-7.4v-7.9h-1.1v-1.9h0.1l0.2-1.5h-1.6l0.2,1.5h0.1v2.1h-1.1v8h-6.5v-4.9h-0.7v0.8h-8.7v-0.8h-1.5v0.9H487
	v-5.5h-0.7v0.8h-8.7v-0.8h-1.5v0.9h-8.9v-0.9H467v0.9h-0.3v-0.9h-0.1v0.9h-0.3v-0.9h-0.1v0.9H466v2.5h-0.4v0.9h-0.9v0.9h-0.9v0.9
	h-0.9v0.9h-0.8v0.9h-0.9v0.9h-0.9v0.9h-0.9v0.8h-1.3v-9.4h-0.3v-0.9h-0.1v0.9h-0.3v-0.9h-0.1v0.9h-0.3v-0.9H457v0.9h-0.3v17.1h-1.4
	v-10h-8.5v-2.1h0.1c0.1,0,0.2-0.1,0.2-0.2v-1.9c0-0.1-0.1-0.2-0.2-0.2h-0.1v-7.1h0.1c0.1,0,0.2-0.1,0.2-0.2v-1.9
	c0-0.1,0-0.2-0.1-0.2c0,0,0,0-0.1,0h-0.1v-7h0.1c0.1,0,0.2-0.1,0.2-0.2v-1.9c0-0.1,0-0.2-0.1-0.2c0,0,0,0-0.1,0h-0.1v-7.1h0.1
	c0.1,0,0.2-0.1,0.2-0.2v2.9h6.2c3.7,0,2-13.2-1.6-13.2H447v-0.3h60.6v-1l-6.7-6.1l-58.7-23.8h0c-0.3-0.2-0.8-0.2-1.1,0.1l-0.1,0.1
	l0,0.1L416,303.1v-28.9h-9.9v-5.7h-23v5.7h-9.9v66.1h-19.6v-34.3h-3.3v-3.8H345v3.7h-8.7v46.8h-2.1v-39.2h-0.1v-4.6H334v4.6h-0.3
	V311h-0.1v2.3h-0.1v14.5h-8.7v-9.8h-0.3v-14.6h-0.1v14.6h-0.3v-13.9h-0.1v14h-0.3v-9.6h-0.1v9.6h-0.3v9.9h-8.9v-6.8h-0.1v6.8h-0.3
	v-8.4H314v8.4h-0.3v-5.6h-0.1v5.6h-0.3v2.4H313v0.9h-1v0.9h-0.9v0.9h-0.9v0.9h-0.9v0.9h-0.9v0.9h-0.9v0.9h-0.9v0.8h-1.3V328h-0.3
	v-3.4H305v3.4h-0.3v-2h-0.1v2h-0.3v-2.2h-0.1v2.2H304v18.1h-5.6V244.8l-14.6-13.3v-23.7h-1.7v23.8l-14.6,13.4v86.4H256v-35.1h-17.4
	v13.5h-9.9v-4.3l-7.3-4.1l-7.4,4.1v4.2h-3.1v11.8h-10.5v-1.2c0.1,0,0.1-0.1,0.1-0.2v-1.4c0-0.1-0.1-0.2-0.2-0.2v-5.3h0.1
	c0.1,0,0.2-0.1,0.2-0.2v-1.3c0-0.1-0.1-0.1-0.1-0.1v-5.3h0.1c0.1,0,0.2-0.1,0.2-0.2V305c0-0.1-0.1-0.1-0.1-0.1v-5.1
	c0.1,0,0.2-0.1,0.2-0.1v-1.4c0-0.1-0.1-0.1-0.2-0.1v-5.1h0.1c0.1,0,0.1-0.1,0.1-0.1v-1.4c0-0.1-0.1-0.1-0.1-0.1h-0.1V286h0.1
	c0.1,0,0.2-0.1,0.2-0.2V285h18.7v-0.8l-5-4.4H200l-1.9-15.5c0.2-0.1,0.4-0.2,0.5-0.4l-0.3-0.3c-0.2,0.2-0.6,0.3-0.9,0.3h0
	c-0.2,0-0.3-0.1-0.4-0.3l-0.3,0.3c0.1,0.1,0.3,0.2,0.4,0.3l-3.2,19.5h0.5l0.8-5.1l1.5,2.1v0.8l-2.1,2.8c0,0-0.1-0.1-0.1-0.1h-1
	l-4.2-4.4h-17.2l24.7-16.9c0,0,0,0.1,0,0.1c0,0.4,0.4,0.8,0.8,0.8c0.4,0,0.8-0.4,0.8-0.8l0,0v-0.1l18.5,16.3h-2.3v0.1h0l5,4.4v-4.4
	h-2.5L198,262.5l-0.1-0.1h-0.1c-0.1-0.1-0.3-0.1-0.4-0.1c-0.1,0-0.3,0-0.4,0.1l-43,17.5l-4.9,4.4v0.7h44.4v0.2H190
	c-2.6,0-3.9,9.6-1.1,9.6h4.6v-2.2c0,0.1,0.1,0.1,0.1,0.1v5.2c-0.1,0-0.2,0.1-0.2,0.1v1.4c0,0.1,0.1,0.1,0.1,0.1h0.1v5.2h-0.1
	c-0.1,0-0.1,0.1-0.1,0.1v1.3c0,0.1,0.1,0.1,0.1,0.1v5.2h-0.1c-0.1,0-0.1,0.1-0.1,0.1v1.3c0,0.1,0.1,0.1,0.1,0.1h0.1v5.2h-0.1
	c-0.1,0-0.2,0.1-0.2,0.1v1.4c0,0.1,0.1,0.1,0.1,0.1v1.2h-7.8v6.3h-3.7v-29.1h-23.3v-9.6c-0.1,0.1-0.2,0.3-0.3,0.3v9.4h-2.4v-9.3
	c-0.1-0.1-0.2-0.2-0.3-0.4v9.7h-16.2v54.2H135v-88.3h-23.3v31.8H86.8V250H43.4v83.5h-3.8v-8.7H13.9v26H0v134.3h860.8V357.2h-2.5
	v-6.6h2.5v-1.9h-2.5v-9.2h2.5v-6h-2.5v-1.9h-2.4v-0.5h4.9L860.7,331z"/>
<rect id="groundWide" y="376.7" class="st0" width="841.9" height="218.6"/>
<g>
	<g>
		<g id="detail_1_">
			
				<linearGradient id="SVGID_1_" gradientUnits="userSpaceOnUse" x1="0.2763" y1="594.5777" x2="1.0192" y2="595.2349" gradientTransform="matrix(64.0089 0 0 -94.5702 670.3595 56601.582)">
				<stop  offset="0" style="stop-color:#925443"/>
				<stop  offset="7.210000e-02" style="stop-color:#9F624B"/>
				<stop  offset="0.2286" style="stop-color:#B97C59"/>
				<stop  offset="0.3934" style="stop-color:#D09465"/>
				<stop  offset="0.5682" style="stop-color:#E1A76F"/>
				<stop  offset="0.7598" style="stop-color:#EEB475"/>
				<stop  offset="1" style="stop-color:#F3B978"/>
			</linearGradient>
			<path class="st4" d="M670.4,306.3h64v94.6h-64V306.3z"/>
			
				<linearGradient id="SVGID_2_" gradientUnits="userSpaceOnUse" x1="0.5" y1="594.6671" x2="0.5" y2="595.1725" gradientTransform="matrix(7.1276 0 0 -94.5702 734.3684 56601.5859)">
				<stop  offset="0" style="stop-color:#845A39"/>
				<stop  offset="0.2216" style="stop-color:#A06D45"/>
				<stop  offset="0.5298" style="stop-color:#C58554"/>
				<stop  offset="0.7042" style="stop-color:#D5905B"/>
			</linearGradient>
			<path class="st5" d="M741.5,309.7l-7.1-3.4v94.6h7.1V309.7z"/>
			
				<linearGradient id="SVGID_3_" gradientUnits="userSpaceOnUse" x1="0.5" y1="593.5888" x2="0.5" y2="595.1826" gradientTransform="matrix(39.0561 0 0 -35.8405 683.6905 21605.3633)">
				<stop  offset="0" style="stop-color:#9C663F"/>
				<stop  offset="0.1931" style="stop-color:#BB8557"/>
				<stop  offset="0.447" style="stop-color:#E5B179"/>
				<stop  offset="0.5782" style="stop-color:#FDC789"/>
			</linearGradient>
			<path class="st6" d="M683.7,270.4h39.1v35.8h-39.1V270.4z"/>
			
				<linearGradient id="SVGID_4_" gradientUnits="userSpaceOnUse" x1="0.5" y1="593.7677" x2="0.5" y2="595.1111" gradientTransform="matrix(8.8303 0 0 -35.8468 722.7466 21609.1328)">
				<stop  offset="0" style="stop-color:#845A39"/>
				<stop  offset="0.2216" style="stop-color:#A06D45"/>
				<stop  offset="0.5298" style="stop-color:#C58554"/>
				<stop  offset="0.7042" style="stop-color:#D5905B"/>
			</linearGradient>
			<path class="st7" d="M731.6,276.5l-8.8-6.1v35.8h8.8V276.5z"/>
			
				<linearGradient id="SVGID_5_" gradientUnits="userSpaceOnUse" x1="0.5" y1="594.6872" x2="0.5" y2="595.2441" gradientTransform="matrix(11.1598 0 0 -87.4173 623.3972 52350.8047)">
				<stop  offset="0" style="stop-color:#925443"/>
				<stop  offset="0.1622" style="stop-color:#B67A58"/>
				<stop  offset="0.3336" style="stop-color:#DEA46D"/>
				<stop  offset="0.4222" style="stop-color:#F3B978"/>
			</linearGradient>
			<path class="st8" d="M623.4,318l11.2-4.5v87.4h-11.2V318z"/>
			
				<linearGradient id="SVGID_6_" gradientUnits="userSpaceOnUse" x1="0.6952" y1="594.4349" x2="0.2416" y2="595.2267" gradientTransform="matrix(53.9316 0 0 -87.4173 634.557 52350.8047)">
				<stop  offset="0" style="stop-color:#713D2F"/>
				<stop  offset="7.950000e-02" style="stop-color:#804C37"/>
				<stop  offset="0.2347" style="stop-color:#9C6745"/>
				<stop  offset="0.3983" style="stop-color:#B47D50"/>
				<stop  offset="0.5717" style="stop-color:#C68E58"/>
				<stop  offset="0.7617" style="stop-color:#D19A5D"/>
				<stop  offset="1" style="stop-color:#D69F60"/>
			</linearGradient>
			<path class="st9" d="M634.6,313.4h53.9v87.4h-53.9V313.4z"/>
			
				<linearGradient id="SVGID_7_" gradientUnits="userSpaceOnUse" x1="1.0995" y1="594.0391" x2="0.2025" y2="595.1411" gradientTransform="matrix(53.9316 0 0 -49.0828 611.3069 29569.7188)">
				<stop  offset="0" style="stop-color:#713D2F"/>
				<stop  offset="1.560000e-02" style="stop-color:#733F30"/>
				<stop  offset="0.2616" style="stop-color:#996444"/>
				<stop  offset="0.4831" style="stop-color:#B88152"/>
				<stop  offset="0.6705" style="stop-color:#CD965B"/>
				<stop  offset="0.8011" style="stop-color:#D69F60"/>
			</linearGradient>
			<path class="st10" d="M611.3,351.9h53.9V401h-53.9V351.9z"/>
			
				<linearGradient id="SVGID_8_" gradientUnits="userSpaceOnUse" x1="0.2241" y1="593.8633" x2="0.6337" y2="595.2012" gradientTransform="matrix(7.7416 0 0 -48.9309 603.5654 29479.2812)">
				<stop  offset="0" style="stop-color:#925443"/>
				<stop  offset="0.1853" style="stop-color:#B67A58"/>
				<stop  offset="0.3812" style="stop-color:#DEA46D"/>
				<stop  offset="0.4824" style="stop-color:#F3B978"/>
			</linearGradient>
			<path class="st11" d="M603.6,353l7.7-1.1v48.9l-7.7-2.7V353z"/>
			
				<linearGradient id="SVGID_9_" gradientUnits="userSpaceOnUse" x1="0.4164" y1="594.0679" x2="0.5642" y2="595.3187" gradientTransform="matrix(89.5821 0 0 -49.0828 675.626 29569.7188)">
				<stop  offset="0" style="stop-color:#9D5C48"/>
				<stop  offset="8.680000e-02" style="stop-color:#AC6C51"/>
				<stop  offset="0.2408" style="stop-color:#C48660"/>
				<stop  offset="0.403" style="stop-color:#D99E6C"/>
				<stop  offset="0.5751" style="stop-color:#EAB076"/>
				<stop  offset="0.7636" style="stop-color:#F7BD7D"/>
				<stop  offset="1" style="stop-color:#FDC27F"/>
			</linearGradient>
			<path class="st12" d="M675.6,351.9h89.6V401h-89.6V351.9z"/>
			<path class="st13" d="M623.3,369.8h26.6v9h-13.3v1.4h-5.9v-1.4h-7.4V369.8z M624.8,377.3h2.9v-4.5h1.5v4.5h1.4v-5.9h-5.9
				L624.8,377.3L624.8,377.3z M632.1,371.4v7.5h2.9v-1.6h2.9v-5.9H632.1L632.1,371.4z M635,372.8h1.5v3.1H635L635,372.8L635,372.8z
				 M639.5,371.4v5.9h2.9v-4.5h1.5v4.5h1.4v-4.5h1.5v4.4h1.5v-5.9l-9,0.2H639.5z"/>
			
				<linearGradient id="SVGID_10_" gradientUnits="userSpaceOnUse" x1="0.8755" y1="594.025" x2="0.2704" y2="595.2347" gradientTransform="matrix(54.8684 0 0 -49.0828 643.3937 29584.2012)">
				<stop  offset="0" style="stop-color:#713D2F"/>
				<stop  offset="1.560000e-02" style="stop-color:#733F30"/>
				<stop  offset="0.2616" style="stop-color:#996444"/>
				<stop  offset="0.4831" style="stop-color:#B88152"/>
				<stop  offset="0.6705" style="stop-color:#CD965B"/>
				<stop  offset="0.8011" style="stop-color:#D69F60"/>
			</linearGradient>
			<path class="st14" d="M643.4,366.4h54.9v49.1h-54.9V366.4z"/>
			
				<linearGradient id="SVGID_11_" gradientUnits="userSpaceOnUse" x1="0.4279" y1="593.8668" x2="0.5273" y2="595.1199" gradientTransform="matrix(10.5394 0 0 -48.9309 632.8542 29493.7715)">
				<stop  offset="0" style="stop-color:#925443"/>
				<stop  offset="0.1853" style="stop-color:#B67A58"/>
				<stop  offset="0.3812" style="stop-color:#DEA46D"/>
				<stop  offset="0.4824" style="stop-color:#F3B978"/>
			</linearGradient>
			<path class="st15" d="M632.9,366.4h10.5v48.9l-10.5-3.7V366.4z"/>
			<path class="st13" d="M657.5,384h26.6v9h-13.3v1.4h-5.9v-1.4h-7.4L657.5,384L657.5,384z M659,391.5h2.9V387h1.6v4.5h1.4v-5.9H659
				L659,391.5L659,391.5z M666.5,385.6v7.5h2.9v-1.6h2.9v-5.9H666.5z M669.3,387h1.6v3.1h-1.5L669.3,387L669.3,387z M673.8,385.6
				v5.9h2.9V387h1.4v4.5h1.4v-4.4h1.6v4.4h1.6v-5.9H673.8L673.8,385.6z"/>
			
				<linearGradient id="SVGID_12_" gradientUnits="userSpaceOnUse" x1="0.3582" y1="594.1609" x2="0.6135" y2="595.2676" gradientTransform="matrix(39.0561 0 0 -35.8278 707.5546 21702.6934)">
				<stop  offset="0" style="stop-color:#9D5C48"/>
				<stop  offset="8.680000e-02" style="stop-color:#AC6C51"/>
				<stop  offset="0.2408" style="stop-color:#C48660"/>
				<stop  offset="0.403" style="stop-color:#D99E6C"/>
				<stop  offset="0.5751" style="stop-color:#EAB076"/>
				<stop  offset="0.7636" style="stop-color:#F7BD7D"/>
				<stop  offset="1" style="stop-color:#FDC27F"/>
			</linearGradient>
			<path class="st16" d="M707.6,375.3h39.1v35.8h-39.1V375.3z"/>
			<path class="st17" d="M659.2,393.2h64.9v32.7h-64.9L659.2,393.2z"/>
			<path class="st18" d="M720.7,390.2h-58l-3.6,3h65.1L720.7,390.2z"/>
			
				<linearGradient id="SVGID_13_" gradientUnits="userSpaceOnUse" x1="0.5" y1="593.8593" x2="0.5" y2="595.1917" gradientTransform="matrix(6.2034 0 0 -36.1443 746.6107 21890.7949)">
				<stop  offset="0" style="stop-color:#845A39"/>
				<stop  offset="0.2216" style="stop-color:#A06D45"/>
				<stop  offset="0.5298" style="stop-color:#C58554"/>
				<stop  offset="0.7042" style="stop-color:#D5905B"/>
			</linearGradient>
			<path class="st19" d="M752.8,375l-6.2,0.3v35.8l6.2-2.2V375z"/>
			
				<linearGradient id="SVGID_14_" gradientUnits="userSpaceOnUse" x1="0.5" y1="593.9338" x2="0.5" y2="595.2236" gradientTransform="matrix(10.6977 0 0 -48.9309 765.2082 29479.2812)">
				<stop  offset="0" style="stop-color:#845A39"/>
				<stop  offset="0.2216" style="stop-color:#A06D45"/>
				<stop  offset="0.5298" style="stop-color:#C58554"/>
				<stop  offset="0.7042" style="stop-color:#D5905B"/>
			</linearGradient>
			<path class="st20" d="M775.9,353.5l-10.7-1.6v48.9l10.7-3.1V353.5z"/>
			
				<linearGradient id="SVGID_15_" gradientUnits="userSpaceOnUse" x1="0.5" y1="593.5533" x2="0.5" y2="595.1589" gradientTransform="matrix(32.2387 0 0 -26.7949 646.3372 16236.8154)">
				<stop  offset="0" style="stop-color:#7E4435"/>
				<stop  offset="9.729999e-02" style="stop-color:#864C39"/>
				<stop  offset="0.2559" style="stop-color:#9C6244"/>
				<stop  offset="0.4551" style="stop-color:#C48A58"/>
				<stop  offset="0.5572" style="stop-color:#E1A766"/>
			</linearGradient>
			<path class="st21" d="M646.3,286.5h32.2v26.8h-32.2V286.5z"/>
			
				<linearGradient id="SVGID_16_" gradientUnits="userSpaceOnUse" x1="1.7609" y1="593.983" x2="-0.288" y2="595.2709" gradientTransform="matrix(5.8869 0 0 -26.9531 640.4503 16331.0176)">
				<stop  offset="0" style="stop-color:#925443"/>
				<stop  offset="0.1187" style="stop-color:#A76A4F"/>
				<stop  offset="0.3724" style="stop-color:#EAB073"/>
				<stop  offset="0.3928" style="stop-color:#F3B978"/>
			</linearGradient>
			<path class="st22" d="M646.3,286.5l-5.9,3.9v23.1h5.9V286.5z"/>
			<path class="st18" d="M752.8,375h-36.1l-9.1,0.2h39.1L752.8,375z"/>
			<path class="st23" d="M702.3,351.9h-13.6v-34.1l13.7,11.5L702.3,351.9z M692.4,306.3h-8.7v-10.1l8.7,7.3L692.4,306.3z"/>
			<path class="st18" d="M643.4,366.6l-10.5-0.2h65.4L643.4,366.6z M713.8,352.4l-38.1-0.5h89.4L713.8,352.4z M638.7,352.1
				l-27.4-0.2h53.8L638.7,352.1z M662.1,313.6l-27.6-0.2h54.1L662.1,313.6z M707.1,306.6l-28.5-0.3h55.8L707.1,306.6z"/>
			<path class="st24" d="M689.4,393.2h4.7v9.3h-4.7L689.4,393.2z"/>
			<path class="st25" d="M700.6,270.4h4.7v9.4h-4.6L700.6,270.4z"/>
			<path class="st24" d="M672.4,366.6h-4v9.2h4V366.6z"/>
			<path class="st26" d="M693.8,390.2h-4l-0.3,3h4.7L693.8,390.2z"/>
			<path class="st26" d="M722.9,392h-62.3l0.8-0.5h60.8L722.9,392z"/>
			<path class="st27" d="M749.4,375.1v7.8h1.2v-7.8H749.4z M771.9,352.9v7.6l-1.6-0.2v-7.7L771.9,352.9z M739,308.6v7.3l-1.6-0.3
				v-7.8L739,308.6z M728.3,274.3v7.3l-1.4-0.5v-7.8L728.3,274.3z"/>
			<path class="st28" d="M656.7,307.5h-3.3c-0.3,0-0.6,0.3-0.6,0.6v3.3c0,0.3,0.3,0.6,0.6,0.6h3.3c0.3,0,0.6-0.3,0.6-0.6v-3.3
				C657.5,307.8,657.2,307.5,656.7,307.5z M655.9,307.8c0,0,0.2,0.3,0.2,0.5c0,0.2-0.2,0.2-0.2,0.2c-0.2,0-0.2-0.2-0.2-0.2
				c0-0.2,0.1-0.5,0.1-0.5L655.9,307.8z M656.6,310c0-0.2-0.2-0.3-0.3-0.3c-0.2,0-0.3,0.2-0.3,0.3c0-0.2-0.2-0.3-0.3-0.3
				c-0.2,0-0.2,0-0.3,0.2v1.4c0,0.3-0.2,0.4-0.5,0.4c-0.3,0-0.5-0.2-0.5-0.5h0.2c0,0.1,0.2,0.3,0.3,0.3c0.2,0,0.3-0.2,0.3-0.3v-1.4
				c0,0-0.2-0.2-0.3-0.2c-0.2,0-0.3,0.1-0.3,0.3c0-0.2-0.1-0.3-0.3-0.3c-0.2,0-0.3,0.1-0.3,0.3c0-0.8,0.6-1.4,1.2-1.4v-0.1h0.2v0.1
				C655.9,308.6,656.6,309.2,656.6,310L656.6,310z M656.4,308.9c-0.2,0-0.2-0.1-0.2-0.1c0-0.1,0.2-0.4,0.2-0.4s0.2,0.3,0.2,0.5
				c0,0.2-0.2,0.2-0.2,0.2V308.9z M661.8,307.5h-3.3c-0.3,0-0.6,0.3-0.6,0.6v3.3c0,0.3,0.3,0.6,0.6,0.6h3.3c0.3,0,0.6-0.3,0.6-0.6
				v-3.2c0.2-0.3-0.1-0.6-0.6-0.6L661.8,307.5z M659.5,308.3l0.5,0.6h-0.3v2h-0.4v-2h-0.1l0.5-0.6L659.5,308.3z M661.4,311.4h-2
				v-0.5h2V311.4z M661.4,309v2h-0.5v-2h-0.3l0.5-0.6l0.5,0.6L661.4,309L661.4,309z M651.6,307.6h-3.3c-0.3,0-0.6,0.3-0.6,0.6v3.3
				c0,0.3,0.3,0.6,0.6,0.6h3.3c0.3,0,0.6-0.3,0.6-0.6v-3.2c0.1-0.3-0.2-0.6-0.6-0.6L651.6,307.6z M649.9,308.7l-0.2,0.2l0.2-0.4
				V308.7L649.9,308.7z M649.1,309.7v-0.4V309.7L649.1,309.7z M649.1,308.2h0.6l-0.3,0.8l-0.1-0.3l-0.2,0.6l-0.2,0.4l0.2-1.5V308.2z
				 M650.7,309.9c0,0.3-0.2,0.6-0.5,0.6v1.1l0.4,0.3h-1.4l0.4-0.3v-1.1c-0.3,0-0.5-0.3-0.5-0.6v-0.1l0.1-0.1l0.1-0.4l0.1,0.2
				l0.4-0.8h0.4v1.4L650.7,309.9z M706.6,298.4h-4c-0.5,0-0.8,0.3-0.8,0.8v4.1c0,0.5,0.3,0.8,0.8,0.8h4c0.5,0,0.8-0.3,0.8-0.8v-4.1
				c0.2-0.3-0.3-0.8-0.8-0.8L706.6,298.4z M705.5,298.7c0,0,0.2,0.5,0.2,0.6c0,0.2-0.2,0.2-0.2,0.2c-0.2,0-0.2-0.1-0.2-0.1
				c0-0.1,0.2-0.6,0.2-0.6V298.7z M706.3,301.6c0-0.1-0.2-0.3-0.5-0.3c-0.2,0-0.5,0.2-0.5,0.3c0-0.1-0.2-0.3-0.5-0.3
				c-0.2,0-0.3,0-0.3,0.2v1.7c0,0.3-0.3,0.6-0.6,0.6c-0.3,0-0.6-0.3-0.6-0.6h0.1c0,0.2,0.1,0.5,0.4,0.5c0.3,0,0.4-0.1,0.4-0.4v-1.8
				c0-0.2-0.2-0.2-0.3-0.2c-0.2,0-0.5,0.2-0.5,0.3c0-0.1-0.2-0.3-0.4-0.3c-0.2,0-0.5,0.2-0.5,0.3c0-0.9,0.8-1.7,1.5-1.7v-0.2h0.1
				v0.1c1.1,0,1.8,0.8,1.8,1.7L706.3,301.6z M706.2,300.4c-0.2,0-0.2-0.1-0.2-0.1c0-0.1,0.2-0.6,0.2-0.6s0.2,0.5,0.2,0.6
				c0,0,0,0.2-0.2,0.2V300.4z M713,298.5h-4c-0.5,0-0.8,0.3-0.8,0.8v4.1c0,0.5,0.3,0.8,0.8,0.8h4c0.4,0,0.8-0.3,0.8-0.8v-4.1
				c0-0.3-0.3-0.8-0.8-0.8L713,298.5z M710,299.5l0.6,0.8h-0.5v2.5h-0.5v-2.5h-0.3L710,299.5L710,299.5z M712.2,303.4h-2.5v-0.5h2.5
				L712.2,303.4L712.2,303.4z M712.2,300.3v2.5h-0.5v-2.5h-0.3l0.6-0.8l0.6,0.8H712.2L712.2,300.3z M719.3,298.6h-4
				c-0.5,0-0.8,0.3-0.8,0.8v4.1c0,0.4,0.3,0.8,0.8,0.8h4c0.4,0,0.8-0.3,0.8-0.8v-4.1C720.1,299.1,719.8,298.7,719.3,298.6
				L719.3,298.6z M717.3,302.5v1.1h-0.9V303l-0.8-0.9v-1.6c0-0.1,0.2-0.1,0.2-0.1c0.2,0,0.2,0.1,0.2,0.1v0.9c0,0-0.1,0-0.1,0.2v0.1
				c0,0.2,0,0.2,0.2,0.2l0.8,0.6l-0.8-0.6c-0.1,0-0.1-0.2,0-0.3c0-0.2,0.2-0.2,0.3,0l0.8,0.6c0-0.2,0.3,0,0.3,0.3L717.3,302.5z
				 M717.3,301.8l-0.9-0.6v-1l0.9,0.6L717.3,301.8L717.3,301.8z M716.2,300l1.1-0.6l1.1,0.6l-1.1,0.6L716.2,300L716.2,300z
				 M718.4,300.2v0.9l-0.9,0.6v-1L718.4,300.2L718.4,300.2z M719.2,301.9C719.2,301.9,719,302.1,719.2,301.9l-0.9,1.1v0.4h-0.8v-1.3
				c0-0.3,0.3-0.4,0.3-0.4l0.8-0.6h0.3v0.3l-0.8,0.6l0.8-0.6l0.2-0.1v-0.1l-0.2-0.2v-1c0-0.2,0.2-0.2,0.2-0.2l0.2,0.1v1.7V301.9z
				 M700.3,298.7h-4c-0.4,0-0.8,0.3-0.8,0.8v4.1c0,0.5,0.3,0.8,0.8,0.8h4.1c0.5,0,0.8-0.3,0.8-0.8v-4.1c0.2-0.3-0.3-0.8-0.8-0.8
				L700.3,298.7z M698.3,300l-0.2,0.3l0.1-0.6L698.3,300L698.3,300z M697.3,301.6l-0.2-0.4l0.1,0.3L697.3,301.6L697.3,301.6z
				 M697.3,299.5h0.8l-0.3,0.9l-0.2-0.4l-0.2,0.6l-0.2,0.4v-1.6L697.3,299.5z M699.1,301.6c0,0.5-0.3,0.8-0.6,0.8v1.2l0.6,0.3h-1.7
				l0.6-0.3v-1.3c-0.3-0.2-0.6-0.4-0.6-0.8v-0.3l0.1-0.3l0.1-0.6l0.1,0.3l0.4-1.1h0.6v2h0.1H699.1z M673.6,418h-4.2
				c-0.5,0-0.9,0.5-0.9,0.9v4.2c0,0.5,0.4,0.9,0.9,0.9h4.2c0.4,0,0.9-0.4,0.9-0.9V419C674.4,418.5,674,418.1,673.6,418L673.6,418z
				 M672.5,418.4c0,0,0.3,0.5,0.3,0.6c0,0.1-0.2,0.3-0.3,0.3c-0.2,0-0.3-0.1-0.3-0.3C672.2,418.9,672.5,418.4,672.5,418.4z
				 M673.3,421.3c0-0.1-0.1-0.3-0.4-0.3c-0.3,0-0.5,0.2-0.5,0.3c0-0.1-0.2-0.3-0.5-0.3c-0.2,0-0.3,0-0.3,0.2v1.8
				c0,0.3-0.3,0.6-0.6,0.6c-0.3,0-0.6-0.3-0.6-0.6h0.1c0,0.1,0.1,0.4,0.4,0.4c0.3,0,0.4-0.1,0.4-0.4v-1.9c-0.2-0.1-0.2-0.1-0.3-0.1
				c-0.3,0-0.4,0.2-0.4,0.3c0-0.1-0.2-0.3-0.4-0.3c-0.3,0-0.5,0.2-0.5,0.3c0-0.9,0.8-1.7,1.7-1.7v-0.2h0.1v0.1
				c0.9,0,1.7,0.8,1.7,1.7L673.3,421.3z M673.1,419.9c-0.2,0-0.3-0.1-0.3-0.3c0-0.1,0.3-0.6,0.3-0.6s0.3,0.4,0.3,0.6
				C673.3,419.7,673.3,419.9,673.1,419.9z M680.2,418.1H676c-0.5,0-0.9,0.5-0.9,0.9v4.2c0,0.5,0.4,0.9,0.9,0.9h4.2
				c0.5-0.1,0.9-0.5,0.9-0.9v-4.2C681.1,418.6,680.7,418.2,680.2,418.1L680.2,418.1z M677.1,419.1l0.6,0.8h-0.3v2.7h-0.6v-2.5h-0.3
				L677.1,419.1L677.1,419.1z M679.4,423.3h-2.7v-0.5h2.6L679.4,423.3L679.4,423.3z M679.4,420.1v2.7h-0.6v-2.9h-0.3l0.6-0.8
				l0.6,0.8h-0.3L679.4,420.1z M666.8,418.2h-4.2c-0.5,0-0.9,0.5-0.9,0.9v4.2c0,0.5,0.4,0.9,0.9,0.9h4.2c0.4,0,0.9-0.4,0.9-0.9v-4.2
				C667.6,418.7,667.2,418.3,666.8,418.2L666.8,418.2z M664.5,419.6l-0.2,0.3l0.1-0.6L664.5,419.6L664.5,419.6z M663.5,421.1
				l-0.2-0.4l0.1,0.3L663.5,421.1L663.5,421.1z M663.5,419h0.9l-0.3,0.9l-0.1-0.4l-0.2,0.8l-0.2,0.6L663.5,419L663.5,419z
				 M665.5,421.1c0,0.5-0.3,0.8-0.6,0.9v1.3l0.6,0.3h-1.7l0.6-0.3v-1.7c-0.5-0.2-0.6-0.5-0.6-0.9v-0.3l0.1-0.3l0.2-0.6l0.2,0.3
				l0.4-1.1h0.8v2L665.5,421.1z M624.1,393.9h-3.8c-0.5,0-0.8,0.3-0.8,0.8v3.9c0,0.5,0.3,0.8,0.8,0.8h3.9c0.4,0,0.8-0.3,0.8-0.8
				v-4.2c0-0.3-0.3-0.8-0.8-0.8L624.1,393.9z M623.1,394.2c0,0,0.1,0.5,0.1,0.6c0,0.1-0.2,0.2-0.2,0.2c-0.2,0-0.2-0.2-0.2-0.2
				l0.1-0.6H623.1z M623.8,397.1c0-0.2-0.2-0.3-0.4-0.3c-0.2,0-0.5,0.1-0.5,0.3c0-0.2-0.2-0.3-0.5-0.3c-0.2,0-0.3,0-0.3,0.1v1.7
				c0,0.3-0.3,0.6-0.6,0.6c-0.3,0-0.6-0.3-0.6-0.6h0.1c0,0.2,0.2,0.5,0.4,0.5c0.2,0,0.5-0.1,0.5-0.4V397c0-0.1-0.1-0.1-0.3-0.1
				c-0.1,0-0.4,0.2-0.4,0.3c0-0.1-0.1-0.3-0.4-0.3c-0.1,0-0.4,0.2-0.4,0.3c0-0.9,0.8-1.6,1.6-1.7v-0.2h0.2v0.2
				C623.1,395.4,623.9,396.2,623.8,397.1L623.8,397.1z M623.6,395.8c-0.1,0-0.1-0.1-0.1-0.1c0-0.1,0.1-0.6,0.1-0.6s0.1,0.4,0.1,0.6
				c0,0,0,0.2-0.2,0.2L623.6,395.8z M630.5,394h-3.8c-0.5,0-0.8,0.3-0.8,0.8v3.9c0,0.5,0.3,0.8,0.8,0.8h3.9c0.4,0,0.8-0.3,0.8-0.8
				v-4.2c0-0.3-0.3-0.8-0.8-0.8V394z M627.4,394.9l0.6,0.8h-0.3v2.5h-0.4v-2.5h-0.3L627.4,394.9L627.4,394.9z M629.6,398.9h-2.3
				v-0.5h2.5v0.4L629.6,398.9z M629.6,395.8v2.5h-0.4v-2.5h-0.3l0.6-0.8l0.6,0.8H629.6z M617.8,393.9H614c-0.5,0-0.8,0.3-0.8,0.8
				v3.9c0,0.5,0.3,0.8,0.8,0.8h3.9c0.4,0,0.8-0.3,0.8-0.8v-4.1c0.1-0.3-0.3-0.8-0.8-0.8V393.9z M615.8,395.1l-0.2,0.3l0.1-0.6
				L615.8,395.1L615.8,395.1z M614.8,396.6l-0.2-0.4l0.2,0.3V396.6L614.8,396.6z M614.8,394.6h0.8l-0.3,0.9l-0.1-0.4l-0.1,0.6
				l-0.1,0.5v-1.8L614.8,394.6z M616.7,396.6c0,0.5-0.3,0.8-0.6,0.8v1.3l0.6,0.3H615l0.6-0.3v-1.3c-0.3-0.1-0.6-0.4-0.6-0.8v-0.3
				l0.1-0.3l0.2-0.6l0.2,0.3l0.4-1.1h0.6v2h0.1L616.7,396.6z"/>
			<path class="st29" d="M721.7,395.2c0-0.3-0.3-0.6-0.6-0.6h-7.3c-0.3,0-0.6,0.3-0.6,0.6v2.7c0,0.3,0.3,0.6,0.6,0.6h7.3
				c0.3,0,0.6-0.3,0.6-0.6V395.2L721.7,395.2z"/>
			<path class="st30" d="M713.9,394.9h7.1v0.3h-7.1V394.9z M713.9,395.9L713.9,395.9l0.1,2.2h-0.1V395.9z M714.4,395.9L714.4,395.9
				l0.1,2.2h-0.1V395.9z M714.7,395.9L714.7,395.9l0.1,2.2h-0.1V395.9z M716.1,395.9L716.1,395.9l0.1,2.2h-0.1V395.9z M717.3,395.9
				L717.3,395.9l0.1,2.2h-0.1V395.9z M716.4,395.9L716.4,395.9l0.1,2.2h-0.1V395.9z M720.1,395.9L720.1,395.9l0.1,2.2h-0.1V395.9z
				 M715,395.9h0.2v2.2H715V395.9z M715.6,395.9h0.2v2.2h-0.2L715.6,395.9z M716.7,395.9h0.2v2.2h-0.2V395.9z M718.9,395.9h0.2v2.2
				h-0.2V395.9z M717.9,395.9h0.2v2.2h-0.2V395.9z M719.8,395.9h0.2v2.2h-0.2V395.9z M715.3,395.9L715.3,395.9l0.1,2.2h-0.1V395.9z
				 M718.4,395.9L718.4,395.9l0.1,2.2h-0.1V395.9z M720.6,395.9L720.6,395.9l0.1,2.2h-0.1V395.9z M720.7,395.9L720.7,395.9l0.1,2.2
				h-0.1V395.9z M717.6,395.9L717.6,395.9l0.1,2.2h-0.1V395.9z M719.3,395.9L719.3,395.9l0.1,2.2h-0.1V395.9z M721,395.9L721,395.9
				l0.1,2.2H721V395.9z M719.5,395.9L719.5,395.9l0.1,2.2h-0.1V395.9z M719.2,395.9L719.2,395.9l0.1,2.2h-0.1V395.9z"/>
			<path class="st29" d="M645.6,317c0-0.3-0.3-0.6-0.6-0.6h-6.7c-0.3,0-0.6,0.3-0.6,0.6v2.3c0,0.3,0.3,0.6,0.6,0.6h6.7
				c0.3,0,0.6-0.3,0.6-0.6V317L645.6,317z"/>
			<path class="st30" d="M638.6,316.7h6.4v0.2h-6.4V316.7z M638.6,317.6L638.6,317.6l0.1,2h-0.1V317.6z M638.9,317.6L638.9,317.6
				l0.1,2h-0.1V317.6z M639.2,317.6L639.2,317.6l0.1,2h-0.1V317.6z M640.5,317.6L640.5,317.6l0.1,2h-0.1V317.6z M641.7,317.6
				L641.7,317.6l0.1,2h-0.1V317.6z M640.9,317.6L640.9,317.6l0.1,2h-0.1V317.6z M644.2,317.6L644.2,317.6l0.1,2h-0.1V317.6z
				 M639.5,317.6h0.2v2h-0.2V317.6z M640.1,317.6h0.2v2h-0.2V317.6z M641.1,317.6h0.2v2h-0.2V317.6z M642.9,317.6h0.2v2h-0.2V317.6z
				 M642.2,317.6h0.2v2h-0.1L642.2,317.6z M643.9,317.6h0.2v2h-0.2L643.9,317.6z M639.8,317.6L639.8,317.6l0.1,2h-0.1V317.6z
				 M642.6,317.6L642.6,317.6l0.1,2h-0.1V317.6z M644.5,317.6L644.5,317.6l0.1,2h-0.1V317.6z M644.8,317.6L644.8,317.6l0.1,2h-0.1
				V317.6z M641.8,317.6L641.8,317.6l0.1,2h-0.1V317.6z M643.6,317.6L643.6,317.6l0.1,2h-0.1V317.6z M644.9,317.6L644.9,317.6l0.1,2
				h-0.1V317.6z M643.7,317.6L643.7,317.6l0.1,2h-0.1V317.6z M643.2,317.6L643.2,317.6l0.1,2h-0.1V317.6z"/>
			<path class="st31" d="M608.1,361.4h-1.7v-8.9l1.7-0.2V361.4z M629.3,325.1l-1.7,0.5v-9.3l1.7-0.6V325.1z"/>
			<path class="st13" d="M698.6,325.6H726v9.3h-13.8v1.6h-6v-1.6h-7.6L698.6,325.6L698.6,325.6z M700.1,333.2h3.1v-4.6h1.6v4.7h1.5
				v-6.1h-6v6.1L700.1,333.2L700.1,333.2z M707.7,327v7.8h2.9v-1.5h3.1v-6.2L707.7,327L707.7,327z M710.7,328.6h1.6v3.1h-1.6V328.6z
				 M715.3,327.1v6.1h3.1v-4.7h1.5v4.7h1.6v-4.5h1.6v4.5h1.6v-6.1L715.3,327.1L715.3,327.1z M648,331.1h27.4v9.4h-13.8v1.5h-6v-1.5
				H648L648,331.1L648,331.1z M649.6,338.8h3.1v-4.7h1.6v4.7h1.6v-6.1h-6v6.1h-0.1H649.6z M657.2,332.7v7.8h3V339h3.1v-6.2
				L657.2,332.7L657.2,332.7z M660.3,334.1h1.6v3.2h-1.5L660.3,334.1L660.3,334.1z M664.8,332.7v6.1h3.1v-4.7h1.6v4.7h1.6v-4.5h1.6
				v4.5h1.6v-6.1h-9.3H664.8z M723.8,386.3h13.8v4.7h-6.8v0.8h-3.1v-0.8h-3.9L723.8,386.3L723.8,386.3z M724.7,390.1h1.6v-2.3h0.8
				v2.3h0.8V387h-3.1L724.7,390.1L724.7,390.1z M728.4,387.2v3.9h1.6v-0.8h1.6v-3.1L728.4,387.2L728.4,387.2z M730,388h0.8v1.5H730
				L730,388L730,388z M732.3,387.2v3.2h1.6V388h0.8v2.3h0.8V388h0.8v2.3h0.8v-3.1L732.3,387.2L732.3,387.2z M717.4,361.7h26.3v8.9
				h-13.2v1.4h-5.9v-1.5h-7.3v-8.9L717.4,361.7z M719,369h3v-4.5h1.4v4.6h1.5v-6.3H719v5.9h0.2L719,369z M726.3,363.2v7.3h3V369h3
				v-5.9l-5.9-0.2L726.3,363.2z M729.1,364.7h1.6v3h-1.5L729.1,364.7L729.1,364.7z M733.6,363.2v6h3v-4.4h1.4v4.4h1.4v-4.4h1.5v4.4
				h1.4v-6.3h-8.6L733.6,363.2z M679.3,402.9h26.3v8.9h-13.2v1.4h-5.9v-1.6h-7.4v-8.9L679.3,402.9z M680.9,410.3h3v-4.4h1.4v4.5h1.4
				v-6H681L680.9,410.3L680.9,410.3z M688.2,404.4v7.2h3v-1.4h3V404h-5.9L688.2,404.4z M691.1,406h1.6v3h-1.6V406L691.1,406z
				 M695.5,404.4v5.9h3v-4.4h1.4v4.4h1.4v-4.4h1.4v4.4h1.4V404h-8.5L695.5,404.4z M696.5,283.3h22.6v7.6h-11.4v1.3h-5.1v-1.3h-6.2
				v-7.9L696.5,283.3z M697.8,289.6h2.5v-3.8h1.2v3.7h1.3v-5.1h-5v4.9L697.8,289.6z M704,284.7v6.3h2.5v-1.3h2.5v-5.4h-5L704,284.7z
				 M706.4,285.9h1.2v2.7h-1.2V285.9z M710.3,284.7v4.9h2.5v-3.7h1.3v3.7h1.2v-3.7h1.3v3.7h1.2v-5L710.3,284.7L710.3,284.7z
				 M654.7,294.5h16.3v5.4h-8.2v0.9h-3.6v-1.3h-4.5v-5.4L654.7,294.5z M655.6,299h1.8v-3.2h0.9v2.8h0.9V295h-3.5v3.6h-0.1L655.6,299
				z M660.1,295.4v4.5h1.8v-1h1.9v-3.8h-3.7V295.4z M661.8,296.3h0.9v1.9h-0.9V296.3z M664.6,295.3v3.6h1.8v-3.2h0.9v2.8h0.9v-2.7
				h0.9v2.7h0.9v-3.6h-5.6L664.6,295.3z"/>
			<path class="st32" d="M474,326.9c-16.8,1.7-19.8,22.5-19.3,23.3c13.2,17.3,36.4,13.1,42.3,0.9c0,0,3-6.6-4.2-9.6
				C490.1,340.5,488.5,326.4,474,326.9L474,326.9z"/>
			<path class="st33" d="M488.3,340.9c0.4,0.6,0.3,1.6-0.4,1.9c-0.6,0.4-1.4,0.1-1.8-0.5c-0.4-0.7-0.3-1.6,0.4-1.9
				C487.2,340,488,340.3,488.3,340.9"/>
			<path class="st34" d="M487.1,340.8c0.4-0.3,1-0.1,1.3,0.4c0.2,0.5,0.1,1.1-0.3,1.4c-0.4,0.3-1,0.1-1.3-0.4
				C486.6,341.6,486.7,341,487.1,340.8"/>
			<path class="st35" d="M487.7,341.4c0.1-0.1,0.4,0,0.4,0.1c0.1,0.1,0,0.4-0.1,0.5c-0.1,0.1-0.4,0-0.4-0.1
				C487.5,341.7,487.6,341.6,487.7,341.4"/>
			<path class="st36" d="M471.8,323.8l3.2,3.4c-0.2,1.2-1,2.3-2.1,2.8c-1.5,0.8-2.5,0.3-3.7-0.7
				C469.2,329.3,469.4,325.6,471.8,323.8"/>
			<path class="st32" d="M474.1,327.9l0.5-0.5l-2.7-2.8l-1.3,3.1C471.3,327.9,473.3,328.4,474.1,327.9"/>
			<path class="st36" d="M494.2,343.3c-3.4,0.8-3.6,1.3-2.9,3.6c0.5,1.6,6.7,4.8,6.1,2.6C497.4,349.5,495.5,346.1,494.2,343.3"/>
			<path class="st34" d="M490.9,345.4c-0.1,1.7,3.4,4.4,6.2,4h0.3c2.5-1.8,2.1-6-0.8-7C493.6,341.4,490.9,343.6,490.9,345.4"/>
			<path class="st36" d="M487.7,355c0.4,0.3,3.2,2.1,5,1.6c-0.6,0.6-1.9,1.4-1.9,1.4s-1,0.1-2-0.9C488,356.4,487.7,355,487.7,355
				L487.7,355z"/>
			<path class="st37" d="M469.9,357.2l-1.4-0.1c-0.5,0.1-8.4,1.8-11.8,11.6c-1.1,3.2-1.4,5.8-1,7.6c0.1,0.7,0.4,1.2,0.6,1.7
				c1.3,2.6,16.8,6.2,14.1,5.8c-9.3-1.6,9.1,9.8,14.7,5.4c17.4-13.5-4.2-36.5-11-23.5"/>
			<text transform="matrix(1 0 0 1 464.9766 374.1174)" class="st38 st39">B58463</text>
			<path class="st40" d="M454.8,376.5c0,0,32.4-5.3,36.7-2.7c0,0-1.5-9.3-7-12.8c0,0-17.9-1.2-19.9-6.5
				C464.4,354.4,456.3,357.6,454.8,376.5L454.8,376.5z"/>
			<path class="st32" d="M455.8,376.6c-0.5,4.5-0.4,10.7,19.4,11.9c0,0,1.4,0.8,1,2.8c-0.4,2.1,14,0.8,8.9-9.1
				C479.4,370.8,454.8,375.1,455.8,376.6L455.8,376.6z"/>
			<path class="st41" d="M479.6,395.1c-0.6,0.4-1.5-1-2.4-2.5c-0.9-1.4-1.6-2.6-1.1-2.8c0.6-0.4,2.3,0.5,3.2,2.1
				C480.1,393.3,480.1,394.9,479.6,395.1"/>
			<path class="st42" d="M464.4,354.4c4,3,18.3,6.3,18.3,6.3s1.6-0.3,2.4,0.9c0,0-4.8,0-5.3,1c-13.6-3.7-6.9-2.5-17.6-6.6
				C462.1,356.1,464,354,464.4,354.4L464.4,354.4z"/>
			<path class="st43" d="M455.2,372.9c0.5-0.1,1,0,1.6-0.1c0.8-0.1,1.8-0.3,2.4,0c-1.4,0.5-3,0.4-4.2,1.4c0.1-0.3,0.1-0.6,0.1-0.9"
				/>
			<path class="st44" d="M457.1,375.8c0,0,0.6,6.5,4,7c0,0,12.2-3.7,15,6.9c0,0-7.7-3.5-11.7-3.2c-3.9,0.4-10-3.5-8.6-10.1
				L457.1,375.8L457.1,375.8z"/>
			<g id="arm_21_-Clipped_1_" transform="translate(742.6 336.95)">
				<defs>
					<filter id="Adobe_OpacityMaskFilter_1_" filterUnits="userSpaceOnUse" x="-272.5" y="27.2" width="27.7" height="14.5">
						<feColorMatrix  type="matrix" values="1 0 0 0 0  0 1 0 0 0  0 0 1 0 0  0 0 0 1 0"/>
					</filter>
				</defs>
				<mask maskUnits="userSpaceOnUse" x="-272.5" y="27.2" width="27.7" height="14.5" id="mask-20_3_">
					<g class="st45">
						<path id="path-19_3_" class="st35" d="M-728.9,238.1c0,0,18.1-3.7,30-2.7c-1.2,11.9-14.3,20.1-16.3,20.9
							c-6,2.2-8.8,3.4-20.7-1.9C-754.3,246.3-728.9,238.1-728.9,238.1z"/>
					</g>
				</mask>
				<path id="arm_1_" class="st46" d="M-263.8,39.9c0,0,11.5,2.3,19,1.7c-0.8-7.5-9.1-12.7-10.3-13.2c-3.8-1.4-5.5-2.2-13.1,1.2
					C-280,34.8-263.8,39.9-263.8,39.9z"/>
			</g>
			<path class="st36" d="M470.8,369.2c0.9,3.2,8.1,6.1,8.1,6.1s11.1,3.2,18.8,3.2c-7.6,0.9-19-1.2-19-1.2S466,373.9,470.8,369.2
				L470.8,369.2z"/>
			<g id="Clipped_6_" transform="translate(741.63 333.9)">
				<defs>
					<filter id="Adobe_OpacityMaskFilter_2_" filterUnits="userSpaceOnUse" x="-271.9" y="27.5" width="15.5" height="12.4">
						<feColorMatrix  type="matrix" values="1 0 0 0 0  0 1 0 0 0  0 0 1 0 0  0 0 0 1 0"/>
					</filter>
				</defs>
				<mask maskUnits="userSpaceOnUse" x="-271.9" y="27.5" width="15.5" height="12.4" id="mask-22_3_">
					<g class="st47">
						<path id="path-21_3_" class="st35" d="M0.4-326.9c0.2-0.4,1.6-2,1.6-2c12.7-0.8,21.7,14.6,21.7,14.6l-2.6,3
							C15.1-322.2,0.4-326.9,0.4-326.9"/>
					</g>
				</mask>
				<path class="st48" d="M-258.8,27.5l2.4,3.6c0,0-6.4,9.2-14.5,8.8c0,0-0.9-1.2-1-1.3C-271.9,38.5-262.6,34.5-258.8,27.5"/>
			</g>
			<g id="Clipped_8_" transform="translate(741.63 333.9)">
				<defs>
					<filter id="Adobe_OpacityMaskFilter_3_" filterUnits="userSpaceOnUse" x="-272.3" y="36.8" width="5.4" height="3.3">
						<feColorMatrix  type="matrix" values="1 0 0 0 0  0 1 0 0 0  0 0 1 0 0  0 0 0 1 0"/>
					</filter>
				</defs>
				<mask maskUnits="userSpaceOnUse" x="-272.3" y="36.8" width="5.4" height="3.3" id="mask-24_3_">
					<g class="st49">
						<path id="path-23_3_" class="st35" d="M0.4-326.9c0.2-0.4,1.6-2,1.6-2c12.7-0.8,21.7,14.6,21.7,14.6l-2.6,3
							C15.1-322.2,0.4-326.9,0.4-326.9"/>
					</g>
				</mask>
				<g class="st50">
					<g id="Clipped_7_" transform="translate(-.4 13.28)">
						<defs>
							<filter id="Adobe_OpacityMaskFilter_4_" filterUnits="userSpaceOnUse" x="-271.9" y="23.5" width="5.4" height="3.3">
								<feColorMatrix  type="matrix" values="1 0 0 0 0  0 1 0 0 0  0 0 1 0 0  0 0 0 1 0"/>
							</filter>
						</defs>
						<mask maskUnits="userSpaceOnUse" x="-271.9" y="23.5" width="5.4" height="3.3" id="mask-26_3_">
							<g class="st51">
								<path id="path-25_3_" class="st35" d="M0.2-337.5h8.4v-5.3H0.2L0.2-337.5z"/>
							</g>
						</mask>
						<path class="st52" d="M-266.5,26.2c0,0-1.8-1.7-2-2.5c-0.3-0.8-3.1,0.5-3.1,0.5l-0.3,0.8l0.8,1.8L-266.5,26.2L-266.5,26.2z"/>
					</g>
				</g>
			</g>
			<g id="Clipped_9_" transform="translate(737.25 323.67)">
				<defs>
					<filter id="Adobe_OpacityMaskFilter_5_" filterUnits="userSpaceOnUse" x="-270.7" y="32.2" width="17.8" height="17.3">
						<feColorMatrix  type="matrix" values="1 0 0 0 0  0 1 0 0 0  0 0 1 0 0  0 0 0 1 0"/>
					</filter>
				</defs>
				<mask maskUnits="userSpaceOnUse" x="-270.7" y="32.2" width="17.8" height="17.3" id="mask-28_3_">
					<g class="st53">
						<path id="path-27_3_" class="st35" d="M5.6-292.5c-11.3-7.4-1.4-24.1-1-24.5c0.2-0.2,0.6-0.2,0.6-0.2
							c12.7,0.2,21.3,14.9,21.3,14.9c0.2,0.2,0.2,0.4,0.2,0.6c0,0.2-7.8,11.2-16.3,10.8C8.7-291.1,7.1-291.5,5.6-292.5"/>
					</g>
				</mask>
				<path class="st54" d="M-252.9,40.9c0,0-5.9,8.4-14,8.5c0,0-0.7,0.1-0.9,0c-0.3-0.1-6.9-11.2,0.8-16c7.7-4.9,14,6.3,14,6.3
					S-252.8,40.8-252.9,40.9"/>
			</g>
			<g id="Clipped_11_" transform="translate(737.25 323.67)">
				<defs>
					<filter id="Adobe_OpacityMaskFilter_6_" filterUnits="userSpaceOnUse" x="-273.9" y="37.2" width="11.1" height="12.9">
						<feColorMatrix  type="matrix" values="1 0 0 0 0  0 1 0 0 0  0 0 1 0 0  0 0 0 1 0"/>
					</filter>
				</defs>
				<mask maskUnits="userSpaceOnUse" x="-273.9" y="37.2" width="11.1" height="12.9" id="mask-30_3_">
					<g class="st55">
						<path id="path-29_3_" class="st35" d="M5.6-292.5c-11.3-7.4-1.4-24.1-1-24.5c0.2-0.2,0.6-0.2,0.6-0.2
							c12.7,0.2,21.3,14.9,21.3,14.9c0.2,0.2,0.2,0.4,0.2,0.6c0,0.2-7.8,11.2-16.3,10.8C8.7-291.1,7.1-291.5,5.6-292.5"/>
					</g>
				</mask>
				<g class="st56">
					<g id="Clipped_10_" transform="translate(-5.97 7.15)">
						<defs>
							<filter id="Adobe_OpacityMaskFilter_7_" filterUnits="userSpaceOnUse" x="-267.9" y="30.1" width="11.1" height="12.9">
								<feColorMatrix  type="matrix" values="1 0 0 0 0  0 1 0 0 0  0 0 1 0 0  0 0 0 1 0"/>
							</filter>
						</defs>
						<mask maskUnits="userSpaceOnUse" x="-267.9" y="30.1" width="11.1" height="12.9" id="mask-32_3_">
							<g transform="scale(0.90) translate(60 -20)" class="st57">
								<path id="path-31_3_" class="st35" d="M0.8-305.5h16.9v-20.9H0.8V-305.5z"/>
							</g>
						</mask>
						<path class="st58" d="M-256.8,41.9c0,0-6.7-5.3-7.6-10.2c-0.9-4.8-3.5,2.5-3.5,2.5l4.3,6.3l2.5,2.5L-256.8,41.9L-256.8,41.9z"
							/>
					</g>
				</g>
			</g>
			<path class="st59" d="M484.6,361c0.7,0.3,2.4,2.3,2.5,2.5l-1.8,0.8l-1.4-2.5l-1.5-0.4C482.4,361.4,483.8,360.7,484.6,361
				L484.6,361z"/>
			<path class="st60" d="M486,362.3c0,0.1,0,0.4-0.3,0.4c-0.1,0-0.4,0-0.4-0.3c0-0.1,0-0.4,0.3-0.4C485.7,362,486,362,486,362.3"/>
			<path class="st61" d="M542.9,374.7h46.4v28.6h-46.4V374.7z"/>
			<path class="st62" d="M542.9,403.4h46.4v1.4h-46.4V403.4z"/>
			<path class="st63" d="M542.9,373.4h46.4v1.4h-46.4V373.4z"/>
			<path class="st63" d="M544.3,403.4l-1.4,1.4v-31.4h1.4V403.4z"/>
			<path class="st62" d="M587.6,403.4l1.5,1.4v-31.4l-1.5,1.3V403.4z"/>
			<path class="st61" d="M542.9,343.2h46.4v28.6h-46.4V343.2z"/>
			<path class="st62" d="M542.9,372h46.4v1.4h-46.4V372z"/>
			<path class="st63" d="M542.9,341.9h46.4v1.4h-46.4V341.9z"/>
			<path class="st63" d="M544.3,372l-1.4,1.4v-31.4h1.4V372z"/>
			<path class="st62" d="M587.6,372l1.5,1.4v-31.4l-1.5,1.3V372z"/>
			<path class="st61" d="M542.9,311.8h46.4v28.6h-46.4V311.8z"/>
			<path class="st62" d="M542.9,340.5h46.4v1.4h-46.4V340.5z"/>
			<path class="st63" d="M542.9,310.4h46.4v1.4h-46.4V310.4z"/>
			<path class="st63" d="M544.3,340.5l-1.4,1.4v-31.5h1.4V340.5z"/>
			<path class="st62" d="M587.6,340.5l1.5,1.4v-31.5l-1.5,1.5V340.5z"/>
			<path class="st64" d="M522.2,310.8h12.5v97h-12.5V310.8z"/>
			<path class="st65" d="M528.4,350h3.8v9.3h-3.7L528.4,350z M528.4,333.5h3.8v6h-3.7L528.4,333.5z M528.4,316.1h3.8v6h-3.7
				L528.4,316.1z"/>
			<path class="st66" d="M522.2,322h3.1v85.8h-3.1V322z"/>
			<path class="st64" d="M534.7,404.8h57.7v3h-57.7V404.8z"/>
			<path class="st67" d="M427.2,386.8H459V413h-31.7V386.8z"/>
			<path class="st68" d="M459,386.8h38.4V413H459v-13.5l-17-3.9v-8.8L459,386.8z M422.2,385.3v-20.7h17.4v30.8l-11.3,3.6v14
				l-9.7-4.9v-21.2L422.2,385.3z"/>
			<path class="st69" d="M497.4,413l22.9-5.7v-24.4h-22.9V413z"/>
			<path class="st68" d="M497.4,386.8l32.2-2.7l-6.2-4.5H496l-6.8,7.2L497.4,386.8z"/>
			<ellipse class="st70" cx="519.8" cy="406.8" rx="16.5" ry="16.9"/>
			
				<linearGradient id="SVGID_17_" gradientUnits="userSpaceOnUse" x1="0.5" y1="594.2718" x2="0.5" y2="595.2756" gradientTransform="matrix(22.1677 0 0 -22.7627 508.742 13945.4434)">
				<stop  offset="0" style="stop-color:#4A4A4A"/>
				<stop  offset="1" style="stop-color:#29282A"/>
			</linearGradient>
			<ellipse class="st71" cx="519.8" cy="406.8" rx="11.1" ry="11.4"/>
			<ellipse class="st70" cx="519.8" cy="406.8" rx="7.2" ry="7.4"/>
			<ellipse class="st72" cx="519.8" cy="406.8" rx="4.9" ry="5"/>
			<ellipse class="st70" cx="443.1" cy="410.5" rx="13" ry="13.3"/>
			
				<linearGradient id="SVGID_18_" gradientUnits="userSpaceOnUse" x1="0.5" y1="594.2756" x2="0.5" y2="595.2756" gradientTransform="matrix(17.3822 0 0 -17.8506 434.4088 11027.6064)">
				<stop  offset="0" style="stop-color:#4A4A4A"/>
				<stop  offset="1" style="stop-color:#29282A"/>
			</linearGradient>
			<ellipse class="st73" cx="443.1" cy="410.5" rx="8.7" ry="8.9"/>
			<ellipse class="st70" cx="443.1" cy="410.5" rx="5.5" ry="5.7"/>
			<ellipse class="st72" cx="443.1" cy="410.5" rx="3.9" ry="4"/>
			<path class="st64" d="M507.2,369l-18-58.2h4.2l19.3,57.9l6.2,10.9h-15.6L507.2,369z M450,306h43.3v4.8h-43.3L450,306z
				 M489.2,386.8h-49.6v-22.2l10.4-53.8h5.2l6,51.3L489.2,386.8z"/>
			<path class="st13" d="M552.5,354.6h23.8v8.1h-11.8v1.3h-5.3v-1.3h-6.5l-0.1-8.1L552.5,354.6z M553.7,361.5h2.6v-4.1h1.3v4.1h1.3
				V356h-5.3L553.7,361.5L553.7,361.5z M560.3,356v6.9h2.6v-1.4h2.6v-5.4L560.3,356L560.3,356z M562.9,357.3h1.4v2.8h-1.4V357.3z
				 M566.9,356.1v5.4h2.6v-4h1.3v4h1.3v-4h1.3v4h1.3V356L566.9,356.1L566.9,356.1z M552.5,324.1h23.8v8.1h-11.8v1.3h-5.3v-1.3h-6.5
				L552.5,324.1L552.5,324.1z M553.7,330.8h2.6v-4.1h1.3v4.1h1.3v-5.4h-5.3L553.7,330.8L553.7,330.8z M560.3,325.4v6.9h2.6v-1.5h2.6
				v-5.4L560.3,325.4L560.3,325.4z M562.9,326.8h1.4v2.8h-1.4V326.8z M566.9,325.4v5.4h2.6v-4h1.3v4.1h1.3v-4h1.3v4.1h1.3v-5.5
				L566.9,325.4L566.9,325.4z M552.5,385.2h23.8v8.2h-11.8v1.3h-5.3v-1.3h-6.5l-0.1-8.1L552.5,385.2z M553.7,392h2.6v-4.1h1.3v4.2
				h1.3v-5.4h-5.3L553.7,392L553.7,392z M560.3,386.6v6.9h2.6v-1.4h2.6v-5.4L560.3,386.6L560.3,386.6z M562.9,387.9h1.4v2.8h-1.4
				V387.9z M566.9,386.6v5.4h2.6v-4h1.3v4.1h1.3v-4h1.3v4h1.3v-5.4L566.9,386.6L566.9,386.6z"/>
		</g>
	</g>
</g>
</svg>
